/* XPM */
static char *result[] = {
/* columns rows colors chars-per-pixel */
"80 80 69 1 ",
"  c #314A16",
". c #314B16",
"X c #314C16",
"o c #324C16",
"O c #324D16",
"+ c #324E16",
"@ c #334E16",
"# c #324F16",
"$ c #324E17",
"% c #324F17",
"& c #334F17",
"* c #335017",
"= c #335117",
"- c #335217",
"; c #345017",
": c #345117",
"> c #355117",
", c #345217",
"< c #345317",
"1 c #355317",
"2 c #345417",
"3 c #355417",
"4 c #355517",
"5 c #355518",
"6 c #375518",
"7 c #355618",
"8 c #355718",
"9 c #365718",
"0 c #365818",
"q c #365918",
"w c #375918",
"e c #375A18",
"r c #385818",
"t c #395919",
"y c #385A18",
"u c #385B18",
"i c #385B19",
"p c #395B19",
"a c #3A5B19",
"s c #395C19",
"d c #395D19",
"f c #3B5C19",
"g c #3A5D19",
"h c #3B5D19",
"j c #3A5E19",
"k c #3B5E19",
"l c #3B5F19",
"z c #3C5E19",
"x c #3B6019",
"c c #3C6019",
"v c #3C601A",
"b c #3D601A",
"n c #3C611A",
"m c #3D611A",
"M c #3D621A",
"N c #3E621A",
"B c #3E631A",
"V c #3F631A",
"C c #3E641A",
"Z c #3F641A",
"A c #3F651A",
"S c #3F651B",
"D c #40651B",
"F c #40661B",
"G c #41661B",
"H c #41671B",
"J c #41681B",
"K c #42681B",
"L c None",
/* pixels */
"LLLLLLLLLLLLLLLLLLLLLLLLLLLLLLLLLKLLLLLLLLLLLLLLLLLLLLLLLLLLLLLLLLLLLLLLLLLLLLLL",
"LLLLLLLLLLLLLLLLLLLLLLLLLLLLLLLLLKHLLLLLLLLLLLJLLLLLLLLLLLLLLLLLLLLLLLLLLLLLLLLL",
"LLLLLLLLLLLLLLLLLLLLLLLLLLLLLLLLLJHHLLLLLLLLLJHLLLKLLLLLLLLLLLLLLLLLLLLLLLLLLLLL",
"LLLLLLLLLLLLLLLLLLLLLLLLLLLLLLLLLJHHHLLLLLLLLHHLLJHJLLLLLLLLLLLLLLLLLLLLLLLLLLLL",
"LLLLLLLLLLLLLLLLLLLLLLLLLLLJHLLLLJHHHHLLLLLLJHHKJHHHLLLLLLLLLLLLLLLLLLLLLLLLLLLL",
"LLLLLLLLLLLLLLLLLLLLLLLLLLLJHHJLLLHHHHJLHHLLHHHJHHHHLLLLLLLLLLLLLLLLLLLLLLLLLLLL",
"LLLLLLLLLLLLLLLLLLLLLLLLLLLJHHHHLLHHHHHLHHHLHHHJZMHHLLLLLLLLLLLLLLLLLLLLLLLLLLLL",
"LLLLLLLLLLLLLLLLLLLLLLLLLLLJHHHHHJHHHHHJHHHJHHHAugDleLJHLLLLLLLLLLLLLLLLLLLLLLLL",
"LLLLLLLLLLLLLLLLLLLLLLLLLLLLHHHHHHHHHHHHHFCHHHHg0ss0wJHKLLLLLLLLLLLLLLLLLLLLLLLL",
"LLLLLLLLLLLLLLLLLLLLKKLLLLLLHHHHHHHHHHHHHlgHHHBq0000nHHKLLLLLLLLLLLLLLLLLLLLLLLL",
"LLLLLLLLLLLLLLLLLLLJHHHHHJLLJHHMZFvHHDHHFyyFHDk0000wZHHHHLLLLLLLLLLLLLLLLLLLLLLL",
"LLLLLLLLLLLLLLLLLLLLHHHHHHHHJHDuvBwBFdZHB0wZvewjw00eDBgAHKLLLLLLLLLLLLLLLLLLLLLL",
"LLLLLLLLLLLLLLLLLLLLHHHHHHGHHHv0jl0jB0lHn00jw0dAe00yjwwSHLLLLLLLLLLLLLLLLLLLLLLL",
"LLLLLLLLLLLLLLLLLLLLHHHHHHnjFGi0ii0yj0yFl0si0wBFy000w0iFFiLLq0LLLLLLLLLLLLLLLLLL",
"LLLLLLLLLLLLLLLLLLLLLHHHHHd0gZe0ww00w00mjyDBqgHMqwilk0jDg0L000LLLLLLLLLLLLLLLLLL",
"LLLLLLLLLLLLLLLLLLLLLKHHHFi00ge00000000sglHHgBZesBFHg0ye00000LLLLLLLLLLLLLLLLLLL",
"LLLLLLLLLLLLLLJHHHHHHKHHHFi0000000e0000wenHHBnyySHHDe00ws0000LqqLLLLLLLLLLLLLLLL",
"LLLLLLLLLLLLLKHHHHHHHHHHCZs0qe000el000000vHHBw0vFDZj000lM0000q0qLLLLLLLLLLLLLLLL",
"LLLLLLLLLLLLLLHHHHHHHHHHjee0eBkq0jB000000sHHB00yiew000wZB00wsw0LLLLLLLLLLLLLLLLL",
"LLLLLLLLLLLLLLKHSNDHHFHHj000wZHmwMCq000000kDM000000000iGBylZBw0LLLLLLLLLLLLLLLLL",
"LLLLLLLLLJHHHHHHM0ymFgkFv0000NHHMAB00000000ys000000000sHFDHHj000LLLLLLLLLLLLLLLL",
"LLLLLLLLJHHHHHHHB000ly0svw000lHHHHM0000000000000000000sHHHHMw0000LLXLLLLLLLLLLLL",
"LLLLLLLLLHHHHHHHZw000000ee000iFHHHv0000000000000000000ymxmlw0000LL..LLLLLLLLLLLL",
"LLLLLLLLLLHHHHHHFi0000exw0wgeqmHHHd00000000000000000000w00000007o...LLLLLLLLLLLL",
"LLLLLLLLLLKHHHSMFv0000wABwwADBNHHZw00000000000000000000000000009=..LLL..LLLLLLLL",
"LLLLLLLLLJHHHHBwyjy0000BHMqkHHHHGg0000000000000000000000000000000*.L....LLLLLLLL",
"LLLLLLLLHHHHHHDe0000000vHHl0lDHDk000000000000000000000000000000007+....LLLLLLLLL",
"LLLLLLLLJHHHHHHg0000000sGHDy0esy0000000000000000000000000000000000<....LLLLLLLLL",
"LLLLLLLLLJHHHHHBq00ilvlsBHHd00000000000000000000000000000000004,*=*..XLLLLLLLLLL",
"LLLLLLLLLLKHHHHHk00kHHHFcFHd0ssiie0000000000000000000000000008#........X..LLLLLL",
"LLLLLLLLLLLLLKHFBs0ySHHMynHs0cFHFAi00000000000000000000000000095-...X%,=..LLLLLL",
"LLLLLLLLLLLLJHHMeq00sngq0yZi00jSHHl00000000000000000000000000000*.O,709+.LLLLLLL",
"LLLLLLLLLLLHHHFHk0ei000000sw000elBs0000000000000000000000000000<.+7000=.LLLLLLLL",
"LLLLLLLLLKHHHHclBsgFNdq000000000000000000000000000000000000007*.O70003oLLLLLLLLL",
"LLLLLLLLKHFZNDB0wudHHHBs00000000000000000000000000000000000009*.=0007+LLLLLLLLLL",
"LLLLLLLLL6:>zGFs00wZHHHFl00000000000000000000000000000000000009+&472O..LLLLLLLLL",
"LLLLLLLL. ohHHHv000iBFHZg000000000000000000000000000000004&*,70=.Xo.....XLLLLLLL",
"LLLLL.....tHHHFs00wwessw0000000000000000000000000000000000<X.O=+.......LLLLLLLLL",
"LLLLL....:DHHHj000sBZCNly00000000000000000000000000000000005+...X+*===&LLLLLLLLL",
"LLLLLL...aHHHZw0000sFHHHDj0wljw000000000000000000000000009542+.+4000007&.LLLLLLL",
"LLLLLLX.omHHJM0090wkFHHHHFi0MHNe000000000000000000000009,OX.XX+70000008%..LLLLLL",
"LLLLLL..+VHDh1==4yBHHAHHHHv0dHHNw000000000000000000000007=....*000094,+...LLLLLL",
"LLLLL...@fr;. X<yZHDlwcHHHAwqMHFs0000000000000000000000000<X..X70008O...XXLLLLLL",
"LLLLLL.....O%=70slgy00mHHSlw0wss000000000000000000000000000<X..,0000&.LLLLLLLLLL",
"LLLLLLL&OX.#900000900jHHGg0000000000000000000000000747000000,..+9000=.LLLLLLLLLL",
"LLLLLLLq94=O=0009390wCHHv000000000000000000000000005oO+=244<#..X3000,..XLLLLLLLL",
"LLLLLL000,X..*77*200iFZj0000000000000000000000000000=....X...XO.+7005o...LLLLLLL",
"LLLLq000=.....XX%000ujw000000000000000000000000000009&......*79<oO,2<+..XLLLLLLL",
"LLLw0007,,,*O...<0000000ie0000w00000000000000000000009<+OO..o3005O....oLLLLLLLLL",
"LLLLLq0000007,XX797<<90kZe000dj00000000000000000000000007=X..X=35*....LLLLLLLLLL",
"LLLqqq00009990<o&+X+70lHM000sSs000000000000000000000009<+.......X......oLLLLLLLL",
"LL0000007=+OO&,*..O70lHHj00ySAw0000000000000000000000073<*O.............LLLLLLLL",
"Lq000000,......X..,0iZSvw00MHn000000000000000009007,<000007&.............oooLLLL",
"Lq0000009,OXOo...X500ww000pFHgwu009400700079008=%+X.X2000007O...............LLLL",
"LLqLLLw0005,+X...X-==90099lFGlvc007=02=000450005O.&#.X<00000*..............LLLLL",
"LLLLL007,*O..O=<,O..*00029ssZZFM00<+4O,0005=0000,X502O.*50004X..........XLLLLLLL",
"LLLL7007+...O70007&.200:,00qZHHBq0,.OX40905O20007O4003X.X%==&............oLLLLLL",
"X..X50009*...20000-.47&o7000BHHB00<..+90355.*0000%<000=....................LLLLL",
"L..+72,0002+.+9005o.+X.%0000mHHc003..+902#<.=0900*&0007X....................LLLL",
"L..XX.,0009=X.=52+.....=0000lHFi007O.O704XO.*02=9=X7000$....................XLLL",
"LL..O,9000=....XX......,0090sHm0990*..303...%05X%*.*000*...................LLLLL",
"LLL=70007=....%<O......*0720wbw0<305X.=0<XX.O87X...X300*...................LLLLL",
"LLL000007*X..=07X......O7=207:70&=00+.O9=*=..<8o....O70&....................LLLL",
"Lq000000007*&90,........&o503O97o+99+..-+27X.+7O.....+4+.....................LLL",
"Lq000000007&707O.........X50<O9<.X49O..Xo70&..*O......XX......................LL",
"LL&<<<904,OO=,+.O<X.......<0*X5*..=7X...+902...................................L",
"Lo.LO4007&.X+,*X20+....X..*8O.+O..O<....%009+..............................X...o",
"LLLL0000092707++00*...+2X.X*.......+....&000*.............................LLLLLL",
"LLLLq08390007+.,00&..+79+........OX.....%000*.............................LLLLLL",
"LLLL*$O&0009#.X709O.X400&........=,.....+909O.........................XX..LLLLLL",
"L......,007%..O002..+000+........*0<X...O90=..........................LLo.LLLLLL",
"LX.....<0<o...Lq7+..*00<.........+90&...X5,....................oLLX...LLLLLLLLLL",
"LLL....*7O....L9+...*0<X..........20+....#X...............X....oLLL..LLLLLLLLLLL",
"LLLLLL.O=.....LL...o+&............+4O......X..............LX....LLLLLLLLLLLLLLLL",
"LLLLL...Xo...LLL..LL.............L.%XL.....L....X........LLLLX.LLLLLLLLLLLLLLLLL",
"LLLLX...XL..XLLLXLL....X..X......L...L.....L....LX.....LXLLLLLLLLLLLLLLLLLLLLLLL",
"LLLL...LLL..LLLLLLL...XL..LL.X...LL.LL....LL....LL.....LLLLLLLLLLLLLLLLLLLLLLLLL",
"LLLLLLLLLLoLLLLLLLL..XLLL.LLXLL..LLLLLL...LL..XLLLLLX.LLLLLLLLLLLLLLLLLLLLLLLLLL",
"LLLLLLLLLLLLLLLLLLLLLLLLLLLLLLLo.LLLLLL..LLLXLLLLLLLLLLLLLLLLLLLLLLLLLLLLLLLLLLL",
"LLLLLLLLLLLLLLLLLLLLLLLLLLLLLLLLLLLLLLLLLLLLLLLLLLLLLLLLLLLLLLLLLLLLLLLLLLLLLLLL"
};
