/* XPM */
static char *result[] = {
/* columns rows colors chars-per-pixel */
"80 80 251 2 ",
"   c #75383B",
".  c #693D38",
"X  c #2F4A15",
"o  c #314B16",
"O  c #354D19",
"+  c #3B4B1C",
"@  c #345417",
"#  c #355917",
"$  c #355618",
"%  c #3B551A",
"&  c #365818",
"*  c #3A5C1A",
"=  c #395E17",
"-  c #2F5116",
";  c #3E631A",
":  c #3A6017",
">  c #3D5825",
",  c #3D5932",
"<  c #3F6021",
"1  c #44561C",
"2  c #4B531C",
"3  c #41671B",
"4  c #42681B",
"5  c #4B661B",
"6  c #52711C",
"7  c #6C6F1A",
"8  c #464B25",
"9  c #57482B",
"0  c #465724",
"q  c #535929",
"w  c #595933",
"e  c #584D33",
"r  c #674B39",
"t  c #67593C",
"y  c #71502D",
"u  c #436223",
"i  c #4D692D",
"p  c #4A6626",
"a  c #53672A",
"s  c #577928",
"d  c #576A35",
"f  c #5B7338",
"g  c #466235",
"h  c #65783B",
"j  c #6F6E35",
"k  c #625F19",
"l  c #7D3547",
"z  c #755747",
"x  c #657744",
"c  c #76764F",
"v  c #446A61",
"b  c #B72E2F",
"n  c #A33621",
"m  c #CF3231",
"M  c #EF3436",
"N  c #EB1E23",
"B  c #8C7A19",
"V  c #A57D16",
"C  c #8D5336",
"Z  c #A3533D",
"A  c #EB7D02",
"S  c #CB4C35",
"D  c #EF7033",
"F  c #E5611F",
"G  c #AB1659",
"H  c #942C4E",
"J  c #B80F6A",
"K  c #B43071",
"L  c #9E2B61",
"P  c #EA3A44",
"I  c #C7096B",
"U  c #CD1176",
"Y  c #C92B78",
"T  c #D73A50",
"R  c #8A5554",
"E  c #A65844",
"W  c #88785C",
"Q  c #8F6A4B",
"!  c #AF6F58",
"~  c #9C5B6F",
"^  c #B5516E",
"/  c #956F68",
"(  c #AF7273",
")  c #D3504C",
"_  c #F8575A",
"`  c #E95050",
"'  c #D3665A",
"]  c #ED665A",
"[  c #F75D62",
"{  c #D3766E",
"}  c #F76569",
"|  c #EA7C7A",
" . c #ED7171",
".. c #CF5A73",
"X. c #5B8317",
"o. c #67950D",
"O. c #74A806",
"+. c #78AC08",
"@. c #718F32",
"#. c #7CA130",
"$. c #5C8328",
"%. c #768748",
"&. c #798C54",
"*. c #7D8E64",
"=. c #AF9019",
"-. c #84B905",
";. c #ADB214",
":. c #8EAD35",
">. c #A69326",
",. c #D88C0D",
"<. c #D18E11",
"1. c #F58A02",
"2. c #F99803",
"3. c #E98A0E",
"4. c #CBB315",
"5. c #FDA503",
"6. c #FEAC03",
"7. c #F7A102",
"8. c #FCB606",
"9. c #F1B812",
"0. c #E9842F",
"q. c #CEBD22",
"w. c #F1B333",
"e. c #C58D29",
"r. c #90C40A",
"t. c #A9D12C",
"y. c #FEC509",
"u. c #FED219",
"i. c #D7C434",
"p. c #F5CD32",
"a. c #879749",
"s. c #899458",
"d. c #8D9254",
"f. c #94AE4C",
"g. c #B0B052",
"h. c #8F9269",
"j. c #AD8B71",
"k. c #96A469",
"l. c #ADB472",
"z. c #ED9753",
"x. c #D3B353",
"c. c #DA8B72",
"v. c #EC8475",
"b. c #EDAE4B",
"n. c #AFC956",
"m. c #B7C579",
"M. c #B5CB70",
"N. c #F7DA57",
"B. c #EDCF54",
"V. c #FDE358",
"C. c #C7C576",
"Z. c #CDCE76",
"A. c #E8CB67",
"S. c #EBD26B",
"D. c #F5D967",
"F. c #F6DB76",
"G. c #E6D577",
"H. c #FCE46C",
"J. c #FBE678",
"K. c #D1C64D",
"L. c #6D7CB3",
"P. c #647BD7",
"I. c #D52688",
"U. c #D83592",
"Y. c #DC3589",
"T. c #E63697",
"R. c #E72B8F",
"E. c #E41387",
"W. c #8F6B8D",
"Q. c #AD7089",
"!. c #A672AF",
"~. c #A8649A",
"^. c #DC5A94",
"/. c #D64E8B",
"(. c #E54599",
"). c #E3589C",
"_. c #D67592",
"`. c #E76696",
"'. c #E97290",
"]. c #E956A5",
"[. c #EC51A5",
"{. c #E967AA",
"}. c #E579A9",
"|. c #EC79B4",
" X c #F177B7",
".X c #F06BB4",
"XX c #D57EA0",
"oX c #947AC4",
"OX c #F37FC1",
"+X c #B88D87",
"@X c #B6AF8B",
"#X c #BD8FBA",
"$X c #9694B0",
"%X c #CF8C8E",
"&X c #F58486",
"*X c #E88899",
"=X c #F69B9B",
"-X c #EC8E8F",
";X c #D0B297",
":X c #CC87A5",
">X c #D38EB0",
",X c #E884AB",
"<X c #EA96A5",
"1X c #EC87B6",
"2X c #F184BC",
"3X c #EB96B9",
"4X c #F291AB",
"5X c #D3B7A8",
"6X c #F3A5A8",
"7X c #F4A9B4",
"8X c #F8B4B4",
"9X c #EEAFAF",
"0X c #BEC899",
"qX c #C6D285",
"wX c #D7D49A",
"eX c #CFCF92",
"rX c #EAD687",
"tX c #EFD68B",
"yX c #D1E599",
"uX c #CDE394",
"iX c #FBE78A",
"pX c #F8E698",
"aX c #D8C4AA",
"sX c #D3D1AC",
"dX c #E6D7BA",
"fX c #E8D7AC",
"gX c #D5E7A3",
"hX c #DDECB3",
"jX c #F9EAA8",
"kX c #8F88CD",
"lX c #B596D0",
"zX c #B2A2E7",
"xX c #AE9EE0",
"cX c #D198CD",
"vX c #F388C2",
"bX c #F299C6",
"nX c #EA9BCB",
"mX c #F4A8CA",
"MX c #F6B7D2",
"NX c #F3ABCD",
"BX c #C1A2E1",
"VX c #DEDAC5",
"CX c #E8DBC6",
"ZX c #F7CFCB",
"AX c #EBE5CE",
"SX c #F5E8D8",
"DX c #EFEFD4",
"FX c #FAF4E7",
"GX c #FBF5EC",
"HX c #FBDAE8",
"JX c None",
/* pixels */
"JXJXJXJXJXJXJXJXJXJXJXJXJXJXJXJXJXJXJXJXJXJXJXJXJXJXJXJXJXJXJXJXJX4 JXJXJXJXJXJXJXJXJXJXJXJXJXJXJXJXJXJXJXJXJXJXJXJXJXJXJXJXJXJXJXJXJXJXJXJXJXJXJXJXJXJXJXJXJXJX",
"JXJXJXJXJXJXJXJXJXJXJXJXJXJXJXJXJXJXJXJXJXJXJXJXJXJXJXJXJXJXJXJXJX4 3 JXJXJXJXJXJXJXJXJXJXJX4 JXJXJXJXJXJXJXJXJXJXJXJXJXJXJXJXJXJXJXJXJXJXJXJXJXJXJXJXJXJXJXJXJX",
"JXJXJXJXJXJXJXJXJXJXJXJXJXJXJXJXJXJXJXJXJXJXJXJXJXJXJXJXJXJXJXJXJX4 3 3 JXJXJXJXJXJXJXJXJX4 4 JXJXJX4 JXJXJXJXJXJXJXJXJXJXJXJXJXJXJXJXJXJXJXJXJXJXJXJXJXJXJXJXJX",
"JXJXJXJXJXJXJXJXJXJXJXJXJXJXJXJXJXJXJXJXJXJXJXJXJXJXJXJXJXJXJXJXJX4 3 3 4 JXJXJXJXJXJXJXJX3 3 JXJX4 3 4 JXJXJXJXJXJXJXJXJXJXJXJXJXJXJXJXJXJXJXJXJXJXJXJXJXJXJXJX",
"JXJXJXJXJXJXJXJXJXJXJXJXJXJXJXJXJXJXJXJXJXJXJXJXJXJXJX4 3 JXJXJXJX4 4 3 3 3 JXJXJXJXJXJX4 3 3 4 4 3 3 3 JXJXJXJXJXJXJXJXJXJXJXJXJXJXJXJXJXJXJXJXJXJXJXJXJXJXJXJX",
"JXJXJXJXJXJXJXJXJXJXJXJXJXJXJXJXJXJXJXJXJXJXJXJXJXJXJX4 3 3 4 JXJXJX3 3 3 3 4 JX3 3 JXJX3 3 4 4 3 3 3 3 JXJXJXJXJXJXJXJXJXJXJXJXJXJXJXJXJXJXJXJXJXJXJXJXJXJXJXJX",
"JXJXJXJXJXJXJXJXJXJXJXJXJXJXJXJXJXJXJXJXJXJXJXJXJXJXJX4 4 3 3 3 JXJX3 3 3 3 3 JX4 3 3 JX3 3 3 4 ; ; 4 4 JXJXJXJXJXJXJXJXJXJXJXJXJXJXJXJXJXJXJXJXJXJXJXJXJXJXJXJX",
"JXJXJXJXJXJXJXJXJXJXJXJXJXJXJXJXJXJXJXJXJXJXJXJXJXJXJX4 3 3 3 4 3 4 4 3 3 3 4 4 3 3 3 4 3 4 4 3 * * ; : & JX4 4 JXJXJXJXJXJXJXJXJXJXJXJXJXJXJXJXJXJXJXJXJXJXJXJX",
"JXJXJXJXJXJXJXJXJXJXJXJXJXJXJXJXJXJXJXJXJXJXJXJXJXJXJXJX4 4 4 ; 3 3 4 3 3 3 3 3 3 3 ; 3 3 3 3 * & & * & & 4 3 4 JXJXJXJXJXJXJXJXJXJXJXJXJXJXJXJXJXJXJXJXJXJXJXJX",
"JXJXJXJXJXJXJXJXJXJXJXJXJXJXJXJXJXJXJXJX4 4 JXJXJXJXJXJX3 4 4 4 3 3 3 3 3 3 3 3 3 : * 3 3 3 ; & & $ = & ; 3 4 4 JXJXJXJXJXJXJXJXJXJXJXJXJXJXJXJXJXJXJXJXJXJXJXJX",
"JXJXJXJXJXJXJXJXJXJXJXJXJXJXJXJXJXJXJX4 3 3 4 3 3 3 JXJX4 3 4 ; ; ; ; 3 3 3 3 3 3 * * 3 3 ; : & & & & & 3 3 3 3 4 JXJXJXJXJXJXJXJXJXJXJXJXJXJXJXJXJXJXJXJXJXJXJX",
"JXJXJXJXJXJXJXJXJXJXJXJXJXJXJXJXJXJXJXJX3 3 3 3 3 3 ; 4 4 3 ; * ; ; * ; ; * 3 3 ; & & ; ; * & * & & $ $ 3 ; & 3 3 4 JXJXJXJXJXJXJXJXJXJXJXJXJXJXJXJXJXJXJXJXJXJX",
"JXJXJXJXJXJXJXJXJXJXJXJXJXJXJXJXJXJXJXJX4 3 3 3 3 3 3 3 3 3 ; & : : & * ; & ; 3 : & & : & & * ; & & & * * = & 3 3 JXJXJXJXJXJXJXJXJXJXJXJXJXJXJXJXJXJXJXJXJXJXJX",
"JXJXJXJXJXJXJXJXJXJXJXJXJXJXJXJXJXJXJXJX3 3 3 3 3 3 ; : ; 4 * & & * & * : & & ; : & * & & & ; 3 & & $ = # & & 3 3 & JXJX& & JXJXJXJXJXJXJXJXJXJXJXJXJXJXJXJXJXJX",
"JXJXJXJXJXJXJXJXJXJXJXJXJXJXJXJXJXJXJXJXJX3 3 3 3 3 * & * ; * & & & & & & & & ; * & 3 ; & * 3 ; & & & * * = * 3 * & JX& & & JXJXJXJXJXJXJXJXJXJXJXJXJXJXJXJXJXJX",
"JXJXJXJXJXJXJXJXJXJXJXJXJXJXJXJXJXJXJXJXJX4 3 3 3 ; * & & * & & & & & & & & & * * ; 3 3 * 3 3 & & 3 3 4 * # * & & & & & & JXJXJXJXJXJXJXJXJXJXJXJXJXJXJXJXJXJXJX",
"JXJXJXJXJXJXJXJXJXJXJXJXJXJX4 3 3 4 3 4 3 4 3 3 ; ; : & & & & & & & & & # # # # = : 4 4 3 : # = 3 3 3 3 # # > # # # # # # JX# & JXJXJXJXJXJXJXJXJXJXJXJXJXJXJXJX",
"JXJXJXJXJXJXJXJXJXJXJXJXJX4 3 3 3 3 3 3 3 3 3 3 : : : & # * & & & & * & & # # # & = 4 4 ; # = 1 3 3 3 * # # # : : # # # # $ & & JXJXJXJXJXJXJXJXJXJXJXJXJXJXJXJX",
"JXJXJXJXJXJXJXJXJXJXJXJXJXJX3 3 3 4 4 3 4 s $.%.7 = # = * ; : & & * * & & & q z t q 4 4 ; & @ = & & & & # # < f &.x g > * & & JXJXJXJXJXJXJXJXJXJXJXJXJXJXJXJXJX",
"JXJXJXJXJXJXJXJXJXJXJXJXJXJX4 4 ; ; 3 4 a.m.:.rXw.g.i # & ; ; ; & 3 3 & % W XX[.T.U H p : & = # & & & & # < @XAXDXAXaXs.u & & JXJXJXJXJXJXJXJXJXJXJXJXJXJXJXJXJX",
"JXJXJXJXJXJXJXJXJX4 3 3 3 4 3 3 ; & & :.N.eXS.rXg.qX#.1 & 3 3 3 3 3 * & / |. XvXvX[.E.L 1 # # @ & & & $ 0 @XGXGXSXAXdXaXs.# # $ JXJXJXJXJXJXJXJXJXJXJXJXJXJXJXJX",
"JXJXJXJXJXJXJXJX4 3 3 3 3 3 3 4 ; & i yXwXM.tXwXl.A.g.@.& * 3 4 3 3 ; t }. XbXvXvXbX1XE.. # @ # & & & $ *.GXGXFXSXAXCXaX;Xf # $ & JXJXo JXJXJXJXJXJXJXJXJXJXJXJX",
"JXJXJXJXJXJXJXJXJX4 3 3 3 3 3 3 ; & %.Z.tXfXG.B.fXS.G.x.5 $ 3 3 3 3 * ~ .XbXvXbXmX X1X(.H 1 @ = & & & * 0XGXGXSXSXSXCX5X;Xs.# $ JXJXo o JXJXJXJXJXJXJXJXJXJXJXJX",
"JXJXJXJXJXJXJXJXJXJX3 3 4 3 4 4 3 * k.eXtXtX;.;.q.eXM.q.7 $ * 3 3 5 0 ^ .XvXbXbXvX2X{.).J 2 @ # & & & i VXGXGXFXSXAXdX5X@Xa.& $ o o o o JXJXJXJXJXJXJXJXJXJXJXJX",
"JXJXJXJXJXJXJXJXJXJX4 3 4 3 ; ; ; ; @XqXqXS.;.:.4.eXl.Z.@.= = 3 3 ; 1 Y  XvXbXvX X1X).).I 2 # # # # # d CXGXSXAXCXCXaXl.:.o.* $ @ o o JXJXJXo o JXJXJXJXJXJXJXJX",
"JXJXJXJXJXJXJXJXJX4 3 3 3 3 ; & * ; g.G.aXtX;.;.i.rXA.:.s ; 3 3 4 & 0 J .X2XbX2X|.}.(./.G % # # & # @ 5 qXAXAXdXwXC.f.O.o.o.* $ $ @ o JXo o o o JXJXJXJXJXJXJXJX",
"JXJXJXJXJXJXJXJX3 3 3 3 3 3 3 & # @ a.jXN.tXtXA.eXC.B.:.; ; 4 4 * & & H R.3X{.|.{.T.^.E.H # # # # & # = #.t.t.r.-.+.+.O.O.X.& & & $ o o o o o JXJXJXJXJXJXJXJXJX",
"JXJXJXJXJXJXJXJX4 3 3 4 4 3 3 * $ $ i n.C.qXl.tXC.g.A.c # = : : = & @ 9 E.].}.(./.^./.I . - @ @ & @ # # X.r.r.r.-.+.O.O.O.5 $ & & $ @ o o o o JXJXJXJXJXJXJXJXJX",
"JXJXJXJXJXJXJXJXJX4 3 4 3 3 3 ; $ $ $ $.eXn.C.B.C.x.;.5 & a n j.E y > % l U R.)./.Y.I   > % x k.l.k.c = * o.r.-.-.+.-.+.6 & & @ O o @ o o o JXJXJXJXJXJXJXJXJXJX",
"JXJXJXJXJXJXJXJXJXJX4 3 3 3 3 3 ; & & ; %.K.S.n.:.k.6 1 y 6X_ ] } ` j.0 @ . J I I G   1 & d.A.jXiXtXfXk.* : X.-.-.-.O.6 : & o o o o o o o o o o o o JXJXJXJXJXJX",
"JXJXJXJXJXJXJXJXJXJXJXJXJX4 4 3 ; & & & 4 6 h s 5 : 3 w S M v.` ` ' ] E * # 2 9 9 1 = & &.fXH.iXF.D.iXA.d.@ & ; 6 6 ; $ & & $ $ @ o o o o o @ @ o o JXJXJXJXJXJX",
"JXJXJXJXJXJXJXJXJXJXJXJX4 3 3 ; # & & & * ; : # @ # 3 j ( ]  .v. .z.m c.h @ & # & & @ 5 Z.jXiXF.D.D.D.D.sXi & $ # # $ & # & $ & @ o o @ $ & & o o JXJXJXJXJXJXJX",
"JXJXJXJXJXJXJXJXJXJXJX3 3 3 3 4 ; & & : # $ # # $ $ a m M v.=X8X8X| {  .C # # # & & @ h N.J.iXJ.J.H.D.H.A.c # # # = & & & & & @ o o $ & & & @ o JXJXJXJXJXJXJXJX",
"JXJXJXJXJXJXJXJXJX3 3 3 3 3 ; * ; & ; ; ; : # # & $ j 6Xc.&X8X8X8X=X' m ! : # # & & # s.jXJ.H.jXFXpXN.B.p.a.@ # & & & & & @ O o o $ & & & $ O JXJXJXJXJXJXJXJXJX",
"JXJXJXJXJXJXJXJX4 3 3 4 ; 3 ; & & & : ; ; u ; ; & @ j ] ) | 8X7X8X6X{ c.j.# # $ & & # d.H.H.H.jXGXiXN.D.tXs.# # & & & & & & o o @ & & & $ o JXJXJXJXJXJXJXJXJXJX",
"JXJXJXJXJXJXJXJXJX& O @ * 3 3 * & & ; ; 4 ; ; ; : # 9 ) v.| 6X8X8X-X) m Q > # # # # @ %.H.J.H.J.iXH.N.N.B.%.# # & & & & & & # o o @ @ & o o o JXJXJXJXJXJXJXJXJX",
"JXJXJXJXJXJXJXJXo o O & 3 3 3 * & & & & ; ; ; ; * & * +X] ) | -X-X' c.c.h # # # # & $ i wXiXV.J.N.N.D.D.x.p # # # @ @ O @ & & o o o o o o o o o o JXJXJXJXJXJXJX",
"JXJXJXJXJXo o o o o * 4 3 3 3 & & & & & # # ; < & # * j m c.m ' ' E b j.> @ & ; ; # # # f.V.J.J.V.H.D.pXs.# - : 5 5 % O o O @ o o o o o o o o JXJXJXJXJXJXJXJXJX",
"JXJXJXJXJXo o o o O 3 3 3 3 & & & # ; ; < t R Q.Q.x * & C %Xm c.b %X! 0 # f #.f.l.#.f & p g.jXH.V.iXB.g.u 0 a.q.x.{ ~ q @ o o o X o O @ @ o O JXJXJXJXJXJXJXJXJX",
"JXJXJXJXJXJXo o o * 3 3 3 3 = & & # # 0 / lXzXxXxX>Xc & 5 t C j.Z Q i # $.qXhXn.gXt.qX$.> 0 s.g.K.@X&.: 3 g.u.z./.~.oXL.v O o o & & & & & & $ @ o JXJXJXJXJXJXJX",
"JXJXJXJXJXJXo o o ; 3 3 3 ; & & & $ > ~ xXzXcXcXxXxX:Xx : ; ; u * # # p :.n.gXuXgXM.uX:.i # # > u = # # B p.x.~...{ ( ^ W.g o & & & & & & $ # o o o JXJXJXJXJXJX",
"JXJXJXJXJXJXo o o 3 3 3 * @ @ O # # c cXBXmXNXMXNXlXlX( ; ; ; ; & & @ @.&.$.#.hXgXgXM.M.k.: $ $ @ @ # # =.p.$X~.] w.p.D M y o & & & & & @ @ o o o o JXJXJXJXJXJX",
"JXJXJXJXJXo o o O * & @ o o o @ & ; j.zXnXvXOXOXnX>XlX%Xi : ; ; = # > :.uXqXf.M.gXgXyXZ.#.< & & = & @ 1 3.b.kX^ ] z.c.z.0.b o & & & $ @ O o o o o o JXJXJXJXJXJX",
"JXJXJXJXJXJXo o o o o o o @ & & & < +XzXnXOXE.R.1X>XlX:Xf > : & # # < sXDXhXgXuXuXyXuXn.g.i @ & & & @ a 0.z.oXQ.M '.!._.w.S + @ & & $ & O o JXJXJXJXJXJXJXJXJXJX",
"JXJXJXJXJXJXJXo o X o o $ & $ & # # ( lXnXOXR.T.|.>XlX:Xh @ & & # # < n.gXgXgXyXyXgXgXwXm.p # & & & & 2 D 0._.$X#XkX~.kXw.e.+ @ & & & & @ o JXJXJXJXJXJXJXJXJXJX",
"JXJXJXJXJXJXJX& $ $ @ o @ & & $ # - W cXcXOX.X.X>X>X:X+Xp @ & = # # # f.DXuXgXgXgXgXM.:.#.> & & & & # 2 S 3.b.c.l.c.m oXw.e.O O & & & & @ o o o JXJXJXJXJXJXJXJX",
"JXJXJXJXJXJX& & $ @ - o o O $ $ - $ d :XlX>X|.}.>X:X:Xj.* & @ @ # # # &.gXgXgXgXyXM.uXqX&.# & @ @ @ & # n N D w.w.F T Q.p.>.o o o $ & & @ o o o o JXJXJXJXJXJXJX",
"JXJXJXJX& & & & O o o o o o o - O # = W :X#XlX#XXX%X%Xh & & @ O # # # > @.gXqX0XM.uX#.f.i # u x %.x u @ 2 b N m ' ^ Q.v.i.a & @ o O @ @ @ o o o o JXJXJXJXJXJXJX",
"JXJXJX& & & & $ @ @ @ O o o o o @ & & * h.%X_.'.*X%Xc * % 8 r z z g # @ p l.f.qX:.l.l.i & x 5XsXaX;X@Xf # g L.P.P.oX`.x.7 @ & & O O X X o o O JXJXJXJXJXJXJXJXJX",
"JXJXJXJXJX& & & $ $ & # # @ o o $ & $ @ > x h./ W d = & r /.|.2X].K e > > u s a.a.s u # x VXCX4X'.*X;X@Xf # > v W.~ R a X X @ @ O + X o o o JXJXJXJXJXJXJXJXJXJX",
"JXJXJX& & & & & & $ $ # = # @ O O X - O & $ ; 3 : # & 8 ..bXHXMX.X].^ 8 Q.c # # : $ @ > 0XSX4X4X9X<X_.%Xk.; # @ - X X X X o X o o o o o o o o o JXJXJXJXJXJXJXJX",
"JXJX& & & & & & $ @ o O o o @ O o o o $ & * 3 3 = % @ R {.MXmX2X{.].U.L ^.^.w & # # - x SXZX3X8X6X5X;X'.%Xd @ @ @ @ o o o o o o o X o o o o o o JXJXJXJXJXJXJXJX",
"JX* & & & & & & @ o o o o o o o o o @ $ & ; ; ; = W ~ ^ ]..X[.[.].(.U.U E.I.z & $ & # *.FX7X7X*X*X*X5X'.c.%.& & & & & O o o o X o o X X X o o o o O o o JXJXJXJX",
"JX# & & & & & & & @ o o o o o o o o @ $ & & # # O Q.[.R.Y (.[.[.U.U.U.J J J w & # & $ k.FX7X4X X,X*X;X%X%X%.# # & & & & o o X o X o + X o X o o o o o o JXJXJXJX",
"JXJX& JXJXJX& & & & & @ o o o o o o @ O @ & # $ w /.E.U U R.T.T.U.I.I.L e . 8 # # $ - *.FX8X}.4X<X*X;X'.%Xc X # & & & & O X o o o X o X o X o o o o o JXJXJXJXJX",
"JXJXJXJXJX& & $ @ O o o o o O @ @ O o o @ & # # 0 R I G U T (.T.I.J U l $ - - # $ > - f CXSX7X'.,X5X;X`.j.d X o @ & & & @ o O X X o o + X o o o o JXJXJXJXJXJXJX",
"JXJXJXJX@ & & @ o o o o o & & & & @ O o @ @ @ - @ 8 z 8 H I Y./.U J J , X X - @ @ @ @ @ @XAXAXCXfX;X'.`.h.$ X X o o X - @ o o o o o o o o o o o o o JXJXJXJXJXJX",
"o o o o & & & & & @ o o o @ & & & & @ o & 7 V V B 5 + & 1 H J I J L 8 X X + c k.Z y 1 X t *X9X<X*X'.`.+Xa @ > c ~ h.z + X X o o o o o o o o o o o o o JXJXJXJXJX",
"JXo o o % @ @ & & & @ o o o & & & & X O =.8.8.5.2.,.7 & : p r r . , X X 0 ) =XFX_ _ @Xq @ z ..`.`._.h.a $ t %XmX{.bX].( 0 X o o o o O X o o o o o o o o JXJXJXJX",
"JXo o o o o @ & & & & O o o O @ O X X >.y.u.8.5.2.1.3.7 : 4 ; = , X - , @X&X=X8XM 8XSX( 1 & 0 q d q @ @ g 5X1XmX{.2X{.3X^ + X o o X X o o o o o o o o o o JXJXJX",
"JXJXo o o @ & & & & @ o o o o o o X k 9.u.y.6.5.2.1.1.<.5 5 : & & @ o d.FX=X_ } } &X_ N C # @ o o o o @ / NXvX}.1X}.,X].U.z - X o o o o o X o o o o o JXJXJXJXJX",
"JXJXJX@ $ & & & $ o o o o o o & o X =.u.u.8.6.7.2.2.2.8.7 : = & @ @ = ! 8X6X} &X&X} [  .j.& & o o o X 8 :X|.1XnXmXbX}.}.3X/ X X o o X o X o X X o o o JXJXJXJXJX",
"JXJXJX& & & $ & $ @ o o o o # & o O e.u.u.6.5.5.6.6.2.6.B O @ = O O 0 { } } '.6X6X&X| SXsX0 @ O X o X g 9XNX1XmXMXMX3X`.(.K + X o o X O O X o o o o o o JXJXJXJX",
"JX& & $ & & & & $ $ $ @ o & & @ X 1 4.8.5.5.6.6.6.6.5.2.7 o & # o o q aXfX_ &X6X7X-XT ` { 0 @ o O o X q `.|.1XmXMXMXnX}.3X^ + o X O X X X O o o o o o o o JXJXJX",
"JX& & & & & & $ $ & $ @ & & & o o + 4.8.2.5.6.6.6.2.A A 5 o $ @ o o > @XHX=X'.=X=X .*XT b 0 O o o o X 8 >XmX1XbXNXNX,X^.{./ O O X X o o o o X o o o o o o o JXJX",
"JXJXO $ @ @ $ & @ @ O o @ O @ o o @ =.y.2.2.6.2.A A A <.$ o $ - X o X Q [ M `  .} ` -XZXQ O O o o o o O j. X{.}.,X,X).3X(.l X o o o o o o o o X o o o o o o o JX",
"JXo o JXo & & & $ O o o o @ o o - # k 9.2.1.1.A A 1.3.B - o O X o X - q ' ZXZX` '...) dXd X o o o o o X r ].mX{.}.{.}.).+X8 X X o o o o X X X o o o o o X o o O ",
"JXJXJXJX& & & & & & @ $ # & o o # # - k ,.1.1.2.2.2.V & o o o o X o o o c dX&XP ZX .b c o o o o o o o o O W ^.).3X^.}.Y t X X X o o o o O O X o o o JXJXJXJXJXJX",
"JXJXJXJX# # & & & & & & $ o o @ # # o X k V ,.,.V B + X o X o X o o o o X w n S aXj.w & o o o o X O X O X O l ~ /.K h.e X o o o o o o o X X O X o o JXJXJXJXJXJX",
"JXJXJXJXO o o o $ & & & @ o o & # # o o X @ 5 1 2 o o X o o X o o @ @ o X X O 8 u ; & & o o o o X X X X o X - $ 8 8 O o o o o o o o o o X O O X o o JXJXJXJXJXJX",
"JXo X o o o o @ & & $ o o o o & # @ o o X $ & $ O X O X X O o o o O & @ X O o o o # # @ o o o o O X X o o o o o X X X O o o o o o X o o o o JXJXo o JXJXJXJXJXJX",
"JXo o o o o o & $ @ o o o o JX& & o o o @ & & @ o o X O X X o X - O & $ O X o o o # @ o o o o o O X o X o o o o X O X X o X o o JXJXo o o o JXJXJXJXJXJXJXJXJXJX",
"JXJXJXo o o o @ $ o o o o o JX$ o o o o @ # @ o o o X o X o o o o o @ & o o o o o o o o o o o o X X O X o o o o o X o o o o o o JXJXJXo o JXJXJXJXJXJXJXJXJXJXJX",
"JXJXJXJXJXJXo o o o o o o o JXJXo o o o o O o o o o o o + X o X o o o $ o o o o o o o o o o o o O X X O o o o o X o JXo o o o o JXJXJXJXJXJXJXJXJXJXJXJXJXJXJXJX",
"JXJXJXJXJXo o o o o o o o JXJXJXo o JXJXo o o o o X o X + X X o o JXo O o JXo o o o o JXo o o o O X X O o o o o o JXJXJXJXo o JXJXJXJXJXJXJXJXJXJXJXJXJXJXJXJXJX",
"JXJXJXJXo o o o o JXo o o JXJXJXo JXJXo o o o o o o o o X o o X o JXX o o JXo o o o o JXo X o o JXX o o o o o JXO JXJXJXJXJXJXJXJXJXJXJXJXJXJXJXJXJXJXJXJXJXJXJX",
"JXJXJXJXo o o JXJXJXo o JXJXJXJXJXJXJXo o o o JXo o JXJXo O X o o JXJXo JXJXo o o o JXJXo o o o JXJXo o o o o JXJXJXJXJXJXJXJXJXJXJXJXJXJXJXJXJXJXJXJXJXJXJXJXJX",
"JXJXJXJXJXJXJXJXJXJXo JXJXJXJXJXJXJXJXo o o JXJXJXo JXJXo JXJXX o JXJXJXJXJXJXo o o JXJXo o o JXJXJXJXJXo o JXJXJXJXJXJXJXJXJXJXJXJXJXJXJXJXJXJXJXJXJXJXJXJXJXJX",
"JXJXJXJXJXJXJXJXJXJXJXJXJXJXJXJXJXJXJXJXJXJXJXJXJXJXJXJXJXJXJXO o JXJXJXJXJXJXo o JXJXJXo JXJXJXJXJXJXJXJXJXJXJXJXJXJXJXJXJXJXJXJXJXJXJXJXJXJXJXJXJXJXJXJXJXJXJX",
"JXJXJXJXJXJXJXJXJXJXJXJXJXJXJXJXJXJXJXJXJXJXJXJXJXJXJXJXJXJXJXJXJXJXJXJXJXJXJXJXJXJXJXJXJXJXJXJXJXJXJXJXJXJXJXJXJXJXJXJXJXJXJXJXJXJXJXJXJXJXJXJXJXJXJXJXJXJXJXJX"
};
