/* XPM */
static char *result[] = {
/* columns rows colors chars-per-pixel */
"80 80 115 2 ",
"   c #642300",
".  c #6A2600",
"X  c #6E2900",
"o  c #732B00",
"O  c #792F00",
"+  c #7E2F0F",
"@  c #7D3100",
"#  c #843500",
"$  c #883700",
"%  c #8C3900",
"&  c #80300F",
"*  c #84390C",
"=  c #893B0A",
"-  c #933D00",
";  c #833312",
":  c #873D11",
">  c #8B3A17",
",  c #8D3D19",
"<  c #903F1B",
"1  c #974002",
"2  c #9C4200",
"3  c #964615",
"4  c #9D4B17",
"5  c #93421C",
"6  c #99451B",
"7  c #9E4D1B",
"8  c #A34600",
"9  c #A74800",
"0  c #AC4B00",
"q  c #A44B0B",
"w  c #AB4E0A",
"e  c #B24E00",
"r  c #AF5007",
"t  c #B45001",
"y  c #B4540B",
"u  c #B9560B",
"i  c #BC590E",
"p  c #A04E1B",
"a  c #A75117",
"s  c #AD5416",
"d  c #A5521D",
"f  c #AC571F",
"g  c #B45611",
"h  c #B85710",
"j  c #BC5B13",
"k  c #BC5E1A",
"l  c #BE601C",
"z  c #984721",
"x  c #9C4B24",
"c  c #A34F24",
"v  c #AB5523",
"b  c #A4532A",
"n  c #A8572D",
"m  c #A7582C",
"M  c #AA5B2E",
"N  c #B25C25",
"B  c #B85E20",
"V  c #B35C2A",
"C  c #AF5D32",
"Z  c #B15F33",
"A  c #BC6122",
"S  c #B7632C",
"D  c #BC642C",
"F  c #AD6032",
"G  c #B56334",
"H  c #B96330",
"J  c #B46837",
"K  c #BD6A34",
"L  c #B76638",
"P  c #B66A39",
"I  c #BC6B3B",
"U  c #BF723F",
"Y  c #C05F17",
"T  c #C05F18",
"R  c #C3631D",
"E  c #C56622",
"W  c #C76926",
"Q  c #C96925",
"!  c #C0662C",
"~  c #C4692C",
"^  c #CC6D2C",
"/  c #CF702F",
"(  c #C56B31",
")  c #CA6E31",
"_  c #C06E39",
"`  c #C77036",
"'  c #CD7132",
"]  c #C4713D",
"[  c #CC753B",
"{  c #D37535",
"}  c #D47738",
"|  c #D67A3B",
" . c #D87D3E",
".. c #C47542",
"X. c #C97644",
"o. c #C77844",
"O. c #CA7A45",
"+. c #CD7E49",
"@. c #D37D44",
"#. c #D97F41",
"$. c #D27E49",
"%. c #CF804A",
"&. c #DB8244",
"*. c #D4834D",
"=. c #DD864A",
"-. c #DF884D",
";. c #D78650",
":. c #D98750",
">. c #DC8A53",
",. c #E0894E",
"<. c #E28D53",
"1. c #E49057",
"2. c #E6935A",
"3. c #E8955B",
"4. c None",
/* pixels */
"4.4.4.4.4.4.4.4.4.4.4.4.4.4.4.4.4.4.4.4.4.4.4.4.4.4.4.4.4.4.4.4.4.4.4.4.4.4.4.4.4.4.4.4.4.4.4.4.4.4.4.4.4.4.4.4.4.4.4.4.4.4.4.4.4.4.4.4.4.4.4.4.4.4.4.4.4.4.4.4.",
"4.4.4.4.4.4.4.4.4.4.4.4.4.4.4.4.4.4.4.4.4.4.4.4.4.4.4.4.4.4.4.4.4.4.4.4.4.4.4.4.4.4.4.4.4.4.4.4.4.4.4.4.4.4.4.4.4.4.4.4.4.4.4.4.4.4.4.4.4.4.4.4.4.4.4.4.4.4.4.4.",
"4.4.4.4.4.4.4.4.4.4.4.4.4.4.4.4.4.4.4.4.4.4.4.4.4.4.4.4.4.4.4.4.4.4.4.4.4.4.4.4.4.4.4.4.4.4.4.4.4.4.4.4.4.4.4.4.4.4.4.4.4.4.4.4.4.4.4.4.4.4.4.4.4.4.4.4.4.4.4.4.",
"4.4.4.4.4.4.4.4.4.4.4.4.4.4.4.4.4.4.4.4.4.4.4.4.4.4.4.4.4.4.4.4.4.4.4.4.4.4.4.4.4.4.4.4.4.4.4.4.4.4.4.4.4.4.4.4.4.4.4.4.4.4.4.4.4.4.4.4.4.4.4.4.4.4.4.4.4.4.4.4.",
"4.4.4.4.4.4.4.4.4.4.4.4.4.4.4.4.4.4.4.4.4.4.4.4.4.4.4.4.4.4.4.4.4.4.4.4.4.0 e 8 e t e 2 4.4.4.4.4.4.4.4.4.4.4.4.4.4.4.4.4.4.4.4.4.4.4.4.4.4.4.4.4.4.4.4.4.4.4.4.",
"4.4.4.4.4.4.4.4.4.4.4.4.4.4.4.4.4.4.4.4.4.4.4.4.4.4.4.4.4.4.e e 4.4.4.4.0 0 e 9 e t e - 8 4.4.4.4.% e e 4.4.4.4.4.4.4.4.4.4.4.4.4.4.4.4.4.4.4.4.4.4.4.4.4.4.4.4.",
"4.4.4.4.4.4.4.4.4.4.4.4.4.4.4.4.4.4.4.4.4.4.4.4.4.4.4.- 0 t e 0 # 4.4.4.0 0 e 9 e e t - 8 4.4.4.4.$ e e e e 0 4.4.4.4.4.4.4.4.4.4.4.4.4.4.4.4.4.4.4.4.4.4.4.4.4.",
"4.4.4.4.4.4.4.4.4.4.4.4.4.4.4.4.4.4.4.4.4.4.4.4.4.4.e - 0 e e e # 4.4.4.0 0 0 9 e t e - 9 4.4.4.4.$ e e e t 0 0 4.4.4.4.4.4.4.4.4.4.4.4.4.4.4.4.4.4.4.4.4.4.4.4.",
"4.4.4.4.4.4.4.4.4.4.4.4.4.4.4.4.4.4.4.4.4.4.4.4.e e t - 0 e e e # 4.4.4.0 0 e 0 e e e 2 9 4.4.4.4.$ e 0 e e 0 0 e 4.4.4.4.4.4.4.4.4.4.4.4.4.4.4.4.4.4.4.4.4.4.4.",
"4.4.4.4.4.4.4.4.4.4.4.4.4.4.4.4.4.4.4.4.4.4.4.4.e e t - 0 e e e @ 4.4.4.0 0 0 8 e e e 8 0 4.4.4.4.$ 0 e e e 8 0 t e 4.4.4.4.4.4.4.4.4.4.4.4.4.4.4.4.4.4.4.4.4.4.",
"4.4.4.4.4.4.4.4.4.4.4.4.4.4.4.4.4.4.4.4.4.4.4.4.e e t - 9 e e e # 4.4.4.e 0 e 9 e e e 8 0 4.4.4.4.% 0 e e t 0 9 e e 4.4.4.4.4.4.4.4.4.4.4.4.4.4.4.4.4.4.4.4.4.4.",
"4.4.4.4.4.4.4.4.4.4.4.4.4.4.4.4.4.4.e e O 4.4.4.e 0 t - 9 e e e # 4.4.4.0 0 e 8 e e e 0 0 4.4.4.4.% e e e e 0 0 0 t 4.4.4.# e e 4.4.4.4.4.4.4.4.4.4.4.4.4.4.4.4.",
"4.4.4.4.4.4.4.4.4.4.4.4.4.4.4.4.e 8 e 0 O 4.4.4.0 0 e - 9 t e e # 4.4.4.0 0 e 8 t e e 0 0 4.4.4.4.% 0 0 e e 0 0 0 t 4.4.  # e e 8 0 4.4.4.4.4.4.4.4.4.4.4.4.4.4.",
"4.4.4.4.4.4.4.4.4.4.4.4.4.4.4.8 0 8 e e @ 4.4.4.e 0 t - 9 e t e # 4.4.4.e 0 e 0 e e e 0 0 4.4.4.4.- 0 e e e 0 0 0 t 4.4.  # e e 0 0 e 4.4.4.4.4.4.4.4.4.4.4.4.4.",
"4.4.4.4.4.4.4.4.4.4.4.4.4.4.e 9 0 8 e e @ 4.4.4.0 9 t 2 9 e e e $ 4.4.4.0 0 e 8 e e e 0 0 4.4.4.4.- 0 0 e 0 0 0 0 e 4.4.  # 0 e 8 0 e 0 4.4.4.4.4.4.4.4.4.4.4.4.",
"4.4.4.4.4.4.4.4.4.4.4.4.4.e t 8 0 8 e e # 4.4.4.e 9 e 2 9 t e t $ 4.4.4.e 0 e 8 t 0 e 0 0 4.4.4.4.% 0 e e e 0 0 0 e 4.4.  # 0 e 0 0 e 8 0 4.4.4.4.4.4.4.4.4.4.4.",
"4.4.4.4.4.4.4.4.4.4.4.4.4.e e 8 e 8 e e @   4.4.0 8 e 8 8 e e e $ 4.4.4.0 0 e 8 e 0 t 0 0 4.4.4.4.% 0 0 e 0 0 0 0 e 4.4.  $ 0 0 0 0 e 9 0 4.4.4.4.4.4.4.4.4.4.4.",
"4.4.4.4.4.4.4.4.4.4.4.4.4.e e 8 0 8 e e #   4.4.e 8 e - 8 e t e $ 4.4.4.e 0 e 0 e 0 t 0 e 4.4.4.4.- 0 e e 0 0 0 0 e 4.4.  $ 0 0 8 0 e 9 e 4.4.4.4.4.4.4.4.4.4.4.",
"4.4.4.4.4.4.4.4.4.4.4.4.4.e e 8 0 9 e e #   4.4.e - 0 8 8 e e e $ 4.4.4.0 0 e 9 e 0 e 0 e 4.4.4.4.- 0 0 e 0 0 e 8 e 4.4.  % 8 0 8 e e 9 0 4.4.4.4.4.4.4.4.4.4.4.",
"4.4.4.4.4.4.4.4.4.4.4.4.4.t e 0 0 8 e e #   4.4.e - 0 8 8 e e e % 4.4.4.e 0 e 0 e 9 t 0 e 4.4.4.4.- 9 e 0 0 0 0 0 e 4.4.  % 8 0 0 e e 9 0 4.4.4.4.4.4.4.4.4.4.4.",
"4.4.4.4.4.4.4.e $   4.4.4.e e 8 0 8 e t #   4.4.e - 0 8 8 t e e % 4.4.4.0 0 e 8 e 8 e e e 4.4.4.4.- 8 e e 0 0 0 0 e 4.4.  % 8 0 8 0 t 8 e 4.4.4.  - e 4.4.4.4.4.",
"4.4.4.4.4.4.e t $   4.4.4.e e 0 0 9 0 e #   4.4.e - 0 8 8 e e e % 4.4.4.e 0 e 0 e 8 e e e 4.4.4.4.- 0 e 0 0 9 e 8 e 4.4.  - 2 0 0 e e 0 0 4.4.4.  - e e 4.4.4.4.",
"4.4.4.4.4.2 e t -   4.4.4.e e 0 0 9 e t $   4.4.e % 0 8 - t e e % 4.4.4.e 0 e 8 e 8 e e e 4.4.4.4.- 0 e 0 9 0 0 0 e 4.4.  - 2 0 9 0 e 9 e 4.4.4.. 1 e e e 4.4.4.",
"4.4.4.4.e 8 e t - . 4.4.4.e e 0 0 9 0 t %   4.4.e % 9 9 8 t e e - 4.4.4.j h Y j T k Y R R 4.4.4.d w w y e 0 9 e 8 e 4.4.  - 2 0 0 e e 0 0 4.4.4.. 1 e e e e 4.4.",
"4.4.4.e e 8 e t -   4.4.4.t e 0 0 0 0 e %   4.4.e % 9 r w T T E W ' } | } | | | @. . . .| |  .} { { / { ^ Q E k g u 4.4.  - 1 0 9 e e 9 e 4.4.4.. 2 0 0 e e 4.4.",
"4.4.4.e e 8 0 t 2 . 4.4.4.e e 0 0 8 e e $   4.4.T B W { } #.#.,.-.<.<.<.<.1.1.1.2.2.1.1.1.1.1.<.<.<.,.=.&.#.|  .} { { ^ 7 w 2 0 9 e e 0 e 4.4.4.X 8 0 e 0 t e 4.",
"4.4.4.e e 8 0 e 2 . 4.4.4.e e 0 8 0 0 u g N '  .#.=.-.<.1.2.2.2.2.3.3.3.3.2.3.2.3.2.2.2.2.2.2.2.2.2.2.2.2.2.2.<.,.,.&. .} { ) W j y e 9 0 4.4.4.X 8 0 e 0 e e 4.",
"4.4.4.e 0 0 0 t 8 X 4.4.4.e e e y R ^ {  .=.>.<.1.2.2.2.2.2.2.2.2.>.>.:.*.%.*.O...%.;.;.:.>.1.2.2.2.2.2.2.2.<.<.<.2.2.2.<.-.#. .{ { Q k u 4.4.4.X 0 0 e 0 e e 4.",
"4.4.4.e 0 0 0 e 9 X 4.4.4.i R ^ } #.=.<.2.2.2.1.1.1.2.1.>.2.1.:.%.+.+.%.*.;.:.m 5 >.>.2.1.1.2.1.2.2.2.2.:.P <.<.-.=.=.-.<.<.2.<.,.#.} { { { 4.4.o 0 8 e 9 e e 4.",
"4.4.4.e 0 0 0 e 0 X 4.4.{ } #.,.<.1.>.;.%.+.*.;.:.1.2.+.x :.2.1.2.2.3.3.3.2.1.b > >.3.3.2.3.3.1.2.2.3.3.I ; $.3.2.2.<.-.&.#.&.-.<.<.<.#.} { { ) f y 0 0 0 e e 4.",
"4.4.4.t 0 9 0 e y f ) | &.<.>.*.o...o.*.>.>.2.2.2.2.3.L ; X.1.1.2.2.2.2.2.2.3.m 5 >.2.2.>.:.*.+.O.O.O.+.m + ..2.2.2.2.2.3.<.,.#.~ } &.,.,.| { { { ' E g e e t 4.",
"4.4.4.e 0 0 g W {  .-.<.*.O...+.L ..3.2.3.2.2.2.2.2.<.G ; X.1.2.2.2.2.3.2.2.2.;.o.2.2.:.;.%.+.O.o.......F > L ..+.:.2.2.2.2.2.:., S  .} | | { { { { } { W Y t 4.",
"4.4.4.e h W { | -.1.:.+.+.>.1.1.z x 1.2.2.2.2.<.=.&.&.$.L >.2.2.<.>.-.-.=.=.&.=.=.=.,.,.<.1.3.3.3.2.2.3.2.:.1.2.1.>.1.2.2.2.2.$.; Z 2.<.&.| { { { { { { { { / 4.",
"4.4.4./ { } =.2.2.>.>.1.3.2.3.<., z 1.1.<.=.#.#.,.<.<.=.$.} ` ) ( ) ^ { } |  . .#.&.=.,.,.<.1.1.1.2.2.2.2.2.2.2.3.2.2.2.2.<.1.$.> L 2.2.2.2.,.| { { { { { { { { ",
"4.4.{ { | <.2.2.2.2.2.1.>.<.2.1.n n =. .{ | #.@.' ( D D D ~ ^ ) ' } { | | | | | | | | | | | | | | | | #.#.#.=.=.>.<.<.<.2.2.2.<.] #.=.,.<.2.2.<.-.| D 6 ) { { { ",
"4.4.{ | <.<.G >.1.-.&.&.<.2.<.-.} ' { } } ' ~ D ~ ) ' { { { { | } { { { } { } } { { { { { { { { { { { { { { { } { } } |  .#.#.,.,.,.,.&.#.| &.,.<.<.V & ! } { { ",
"4.4.#.<.2.X.; H | | -.1.,.&.| { } { { { { { { { } { } { { { ^ ) W ~ } { R Y Y j j g u j j 4.4.4.p g j T T E W Q Q / } } { { { { { | |  .| | { { } } V & ! { { { ",
"4.4.,.,.#.S & V &.,.=. .{ { { { } { { } } { { { ^ A k R h u r e 2 4.4.4.e 0 e 0 e 8 e e e 4.4.4.. 8 8 e 0 9 0 0 0 u 4.7 6 T B ^ / { { { { { { { { { ~ c / { { } ",
"4.4.{ { { ~ 5 ` &.} { { { { { { } { ^ Q k 3 4.4.t 1 - e 8 e 0 0 2 4.4.4.e e e 0 e 8 e t e 4.4.4.o 8 8 e e 0 0 e 0 e 4.4.o 9 % 0 y i k Q { } } { { { { { { { { 4.",
"4.4.{ { }  .) { { { { { { { ^ R j u e e 9 o 4.4.t - - e 9 e 0 0 2 4.4.4.e e e 0 e 8 e e e 4.4.4.X 8 8 e 0 0 0 0 0 t 4.4.o 9 $ 0 0 e 8 e 4.4.4.N ) { { { { { } 4.",
"4.4.4.{ { { { { { ^ D ' 4.j t t 0 0 0 e 0 X 4.4.t 2 - e 0 e 0 0 2 4.4.4.e e e 0 e 8 e e e 4.4.4.o 8 9 e e 0 0 0 0 e 4.4.O 0 # 0 e 0 9 e 4.4.4.X 9 g W ) { { { 4.",
"4.4.4.{ { { ^ R j w X 4.4.4.e e 0 e 0 e 0 o 4.4.t 2 - e 0 e 0 0 8 4.4.4.e e e 0 e 0 0 e t 4.4.4.o 8 8 e e 0 0 e 0 4.4.4.O 8 $ 0 e e 0 e 4.4.4.X 9 0 e 9 j ^ { 4.",
"4.4.4.{ R y t e e 8 . 4.4.4.e e e e 0 e 0 o 4.4.t 2 - e 0 e 0 0 8 4.4.4.e e e 0 e 9 0 e e 4.4.4.o 8 8 t 0 0 0 0 0 4.4.  O 0 % 0 e 0 9 e 4.4.4.o 9 0 0 8 e t 4.4.",
"4.4.4.4.e 0 0 e e 9 X 4.4.4.e e 0 e 0 e 0 o 4.4.e 2 - e e e 0 0 2 4.4.4.e e e e e 0 e 0 e 4.4.4.o 8 8 t e 0 0 0 0 4.4.  O 8 - 0 e 0 0 e 4.4.4.o 0 0 0 0 t e 4.4.",
"4.4.4.4.e 0 0 e t 0 X 4.4.4.e 0 e e 0 e 0 o 4.4.t 8 - e e e 0 0 8 X 4.4.t e t 0 e 0 e 0 e 4.4.4.o 8 9 e 0 0 0 e 0 4.4.  @ 0 - 0 e e 0 e 4.4.4.O 0 0 0 0 t e 4.4.",
"4.4.4.4.e 0 e 0 t 0 o 4.4.4.e e 0 e e e e O 4.4.4.8 - e e e 0 0 8 X 4.4.e e t 0 0 0 0 0 e 4.4.4.o 8 0 e e e 0 e e 4.4.  @ 9 - 0 e 0 0 e 4.4.4.O e 0 0 0 e e 4.4.",
"4.4.4.4.e 0 e 0 e 0 O 4.4.4.e e e e 0 t 0 O   4.4.8 - e e e 0 0 8 X 4.4.e e e 0 e 0 e 0 e 4.4.4.O 8 8 e e 0 0 e e 4.4.  # 9 1 0 t 0 0 e 4.4.4.@ e 0 8 0 e 4.4.4.",
"4.4.4.4.4.0 e e 0 0 O 4.4.4.e 0 e e e e e O   4.4.8 1 e t e 0 0 8 X 4.4.e e e 0 e 0 0 0 e 4.4.4.o 0 9 e e e 0 0 e 4.4.  # 0 1 0 e 0 0 e 4.4.  # e e 8 0 e 4.4.4.",
"4.4.4.4.4.0 e e 0 e @ 4.4.4.e 0 e e e e 0 @   4.4.8 1 t e t 0 0 8 o 4.4.e e e 0 e 0 0 0 e 4.4.4.O 0 8 e e e 0 e e 4.4.  # 8 2 0 e 0 0 e 4.4.  # e e 8 0 e 4.4.4.",
"4.4.4.4.4.e e e 0 e #   4.4.e 0 e e e e 0 @   4.4.9 2 e e e 0 0 8 o 4.4.e e e 0 e 0 e 9 e 4.4.4.o 8 0 e e e 0 e e 4.4.  $ 0 1 e e 0 0 e 4.4.  % e e 9 0 e 4.4.4.",
"4.4.4.4.4.0 e e 0 e #   4.4.e 0 e e e e e @   4.4.8 2 t e t 0 0 8 o 4.4.e e e 0 e e e 0 e 4.4.4.O 9 8 e e e 0 e e 4.4.  $ 0 8 0 e 0 0 e 4.4.  - e e 9 0 0 4.4.4.",
"4.4.4.4.4.0 e e 0 0 %   4.4.e 0 e e e e 0 #   4.4.0 2 e e e 0 0 9 o 4.4.t e e e e e e 9 e 4.4.4.O 9 0 e t e 0 e e 4.4.  $ 9 2 e e 0 e e 4.4.. - e e 8 0 0 4.4.4.",
"4.4.4.4.4.0 e e 0 e -   4.4.e 0 e e e e 0 #   4.4.0 2 e e e 0 0 9 o 4.4.e e e 0 e e e 9 e 4.4.4.O 8 0 e e e e e e 4.4.  % 0 8 0 e 0 e e 4.4.. - e e 9 0 0 4.4.4.",
"4.4.4.4.4.0 e e 9 0 - . 4.4.u r u u h j j a p 4.^ R k R E R E R R N } { R R R Y Y Y Y g j 4.4.4.= 0 0 t t e e e e 4.4.  - 8 8 0 e 9 e 4.4.4.. 2 e e 9 9 0 4.4.4.",
"4.4.4.4.4.e y i j l k V } { { ^ { { { } } { } { } } { } { { { { { { { { { { { { } { { { { { { { ' ^ ^ ^ Q W E R R 4.4.: q 0 9 t e 0 e 4.4.4.. 2 e e 0 0 e 4.4.4.",
"4.4.4.4.{ / ' { } } { { { { { { { } } } } |  .#.| &.&.&.=.&.,.&.=.=.=.&.&.=.=.&.&.&.&. .#.#. .|  .| | } | } { { { { } ' ' { ) ^ ^ W R ^ 4.4.* w t e 9 8 0 4.4.4.",
"4.4.4.4.{ { { { { } | | #.&.&.=.>.<.<.<.<.<.2.2.2.2.3.3.3.3.3.3.3.2.2.2.3.2.2.2.2.2.2.2.2.2.1.1.<.<.,.,.,.&.#. .| } { { { { { { { } { { { { / / ^ ^ E k W 4.4.4.",
"4.4.4.4.{ { } #.=.,.<.2.2.2.2.2.2.2.2.2.2.2.1.<.>.>.:.:.>.>.>.>.>.1.1.1.2.2.1.>.<.-.=.=.&.&.&. . . .| } | } | { { { { { { { { { { { { { { { { } { { { } { 4.4.4.",
"4.4.4.4.{ #.<.>.I 2.2.2.2.2.2.2.2.+.L 1.2.2.1.:.*.%.o...C M P P P P J J J P P P J I I ..] O.@.*.-.-.<.<.,.<.<.>.,.,.-.=.&.&.#.#.| | } { } { { { { { { { { 4.4.4.",
"4.4.4.4.{ ,.3.P ; *.3.3.3.2.3.3.2.n > >.3.2.2.2.3.3.2.2.z b 1.1.1.>.>.>.>.:.:.o., U ;.:.:.:.:.>.1.2.2.2.Z X.3.2.2.2.2.2.2.2.1._ <.2.<.,.| { { { ) v { { { 4.4.4.",
"4.4.4.4.4.S K x ; P +.%.*.*.=.;.:.b ; *.1.2.2.2.2.2.3.>., z 2.2.2.2.2.2.2.2.3.o.+ I 3.3.3.2.2.2.2.2.2.:.> n 3.2.2.2.2.2.3.3...; [ ,.#.} } { { { N & ! } { 4.4.4.",
"4.4.4.4.4.) ) N , D ` ` O.@.@.*.=.G x -.>.<.<.<.>.1.2.>.z n 2.2.2.2.2.2.2.2.2.o.+ I 3.3.2.2.2.:.+.O.O...; x *.;.>.>.>.,.-.#.Z ; V } { { { { { { v & V { { 4.4.4.",
"4.4.4.4.4.} { { ) { } ' ' ' ' ' { ' ' }  .|  .#.&.-.>.1.;.;.3.2.2.1.1.2.2.2.3.1.C :.3.3.2.2.3.2.>.:.;.+.b L $.*.;.>.,.,.,.,._ < ' #. . . .| | } ! < ) } { 4.4.4.",
"4.4.4.4.4.{ { { } } } ' ~ ~ D K K K K _ ] ..+.%.*.:.>.<.2.3.2.2.3.>.;.+.+.+.+.$.;.:.>.>.1.>.>.2.2.1.1.1.<.1.2.1.2.2.2.2.2.2.2.$.1.1.1.,.,.#. .} / / { } { 4.4.4.",
"4.4.4.4.4.4.E W / { { { { { } { { } }  .#.#.#.&.=.-.=.,.<.<.<.<.<.1.1.>.:.*.+.X...] U U ] U o.o.+.+.%.*.-.:.>.<.<.<.1.<.<.=.=.&.&.| | { { { { { { { { { { 4.4.4.",
"4.4.4.4.4.4.0 e t q y s v { } ' { { ' { { { } } { { } } { | { | | |  . . .#.&.&.&.&.&.&.&.&.&.&.&.&.&.&.&.#.&.| | | | { { { { { { { { { { { } { { { { { 4.4.4.4.",
"4.4.4.4.4.4.0 0 e 8 0 -   4.4.t w u j Y T A N ) { / / { { } { { } } { } { { { { { { } } { { { { } } } } { } } } { { } { { { { { { { { { } ( W Q Q E k E 4.4.4.4.",
"4.4.4.4.4.4.e 0 e 2 0 1   4.4.e 8 e e e 0 1 o 4.4.y t y u u h j j a ^ 4.Q R R E R E E E Q { } ' B E R E R R R R W 4.N 4 j j g j u u u 4.4.o 1 e e 0 8 4.4.4.4.4.",
"4.4.4.4.4.4.4.0 e 8 0 1 . 4.4.0 8 e e e e 2 X 4.4.e 0 e e 0 0 e 0 @ 4.4.e e 0 0 t t e 8 0 4.4.4.# e e e t e e e e 4.4.o e e 8 e e e 4.4.4.. - e e e 8 4.4.4.4.4.",
"4.4.4.4.4.4.4.e e 9 8 2 . 4.4.e 8 e t e 0 2 o 4.4.e 0 e e 0 0 e e @ 4.4.e e 0 0 e e t 8 0 4.4.4.$ e e e e t e e e 4.4.O e e 8 t e e 4.4.4.X 1 e t 0 8 4.4.4.4.4.",
"4.4.4.4.4.4.4.e e 9 8 8 . 4.4.4.8 e e e 0 2 o 4.4.e e e e 0 8 e 0 # 4.4.4.e 0 0 t t e 9 0 4.4.4.$ e e e 0 t e e 4.4.4.O e 0 8 e e e 4.4.4.X 2 e e 0 8 4.4.4.4.4.",
"4.4.4.4.4.4.4.e e 0 2 9 X 4.4.4.8 e e e 0 8 o 4.4.e e e e 0 0 e e # 4.4.4.e 0 0 e e e 8 0 4.4.4.$ e e e 0 e e t 4.4.4.O e e 9 e e e 4.4.4.o 8 e e 0 8 4.4.4.4.4.",
"4.4.4.4.4.4.4.4.e 0 2 0 o 4.4.4.8 0 e t 0 2 O 4.4.t t e e 0 0 e e # 4.4.4.e 0 9 e e e 9 0 4.4.4.% e e e 0 e e e 4.4.  @ e e 8 e e e 4.4.4.O 8 e e 0 4.4.4.4.4.4.",
"4.4.4.4.4.4.4.4.4.4.8 0 4.4.4.4.0 e e e e 8 O 4.4.4.e e e e 8 e e # 4.4.4.e 0 0 e t e 8 0 4.4.4.% e e e 0 e e e 4.4.  # e e 8 e e t 4.4.4.O 8 e 4.4.4.4.4.4.4.4.",
"4.4.4.4.4.4.4.4.4.4.4.4.4.4.4.4.8 0 e e e 8 @ 4.4.4.e e e 0 8 e e # 4.4.4.e 0 0 t e e 8 0 4.4.4.- e e 0 8 t t e 4.4.  # e e 9 e t e 4.4.4.4.4.4.4.4.4.4.4.4.4.4.",
"4.4.4.4.4.4.4.4.4.4.4.4.4.4.4.4.4.e e e 0 8 4.4.4.4.e t e e 9 t e 4.4.4.4.t 0 0 e e e 0 0 4.4.4.- e e 0 8 e e e 4.4.4.4.t 0 9 t e 4.4.4.4.4.4.4.4.4.4.4.4.4.4.4.",
"4.4.4.4.4.4.4.4.4.4.4.4.4.4.4.4.4.4.4.4.4.4.4.4.4.4.4.4.4.4.4.4.4.4.4.4.4.4.4.0 t 4.4.4.4.4.4.4.4.4.4.4.4.4.4.4.4.4.4.4.4.4.4.4.4.4.4.4.4.4.4.4.4.4.4.4.4.4.4.4.",
"4.4.4.4.4.4.4.4.4.4.4.4.4.4.4.4.4.4.4.4.4.4.4.4.4.4.4.4.4.4.4.4.4.4.4.4.4.4.4.4.4.4.4.4.4.4.4.4.4.4.4.4.4.4.4.4.4.4.4.4.4.4.4.4.4.4.4.4.4.4.4.4.4.4.4.4.4.4.4.4.",
"4.4.4.4.4.4.4.4.4.4.4.4.4.4.4.4.4.4.4.4.4.4.4.4.4.4.4.4.4.4.4.4.4.4.4.4.4.4.4.4.4.4.4.4.4.4.4.4.4.4.4.4.4.4.4.4.4.4.4.4.4.4.4.4.4.4.4.4.4.4.4.4.4.4.4.4.4.4.4.4.",
"4.4.4.4.4.4.4.4.4.4.4.4.4.4.4.4.4.4.4.4.4.4.4.4.4.4.4.4.4.4.4.4.4.4.4.4.4.4.4.4.4.4.4.4.4.4.4.4.4.4.4.4.4.4.4.4.4.4.4.4.4.4.4.4.4.4.4.4.4.4.4.4.4.4.4.4.4.4.4.4."
};
