/* XPM */
static char *result[] = {
/* columns rows colors chars-per-pixel */
"80 80 177 2 ",
"   c #4E1945",
".  c #4E1B49",
"X  c #511D4C",
"o  c #542244",
"O  c #5D2B45",
"+  c #56244A",
"@  c #58264B",
"#  c #5C2B4A",
"$  c #5A2743",
"%  c #5F3049",
"&  c #5B2B59",
"*  c #572553",
"=  c #602F46",
"-  c #602F49",
";  c #633344",
":  c #673845",
">  c #6B3C45",
",  c #633449",
"<  c #663848",
"1  c #6A3C49",
"2  c #61325C",
"3  c #653754",
"4  c #653862",
"5  c #693C65",
"6  c #6E4145",
"7  c #6F4249",
"8  c #724546",
"9  c #764946",
"0  c #794E47",
"q  c #724549",
"w  c #764949",
"e  c #794D4A",
"r  c #7E5247",
"t  c #7D5149",
"y  c #6C415C",
"u  c #6F4356",
"i  c #754954",
"p  c #794E54",
"a  c #754959",
"s  c #7A4F5A",
"d  c #72475A",
"f  c #7A5055",
"g  c #7C535B",
"h  c #6D436A",
"j  c #6C4165",
"k  c #764D64",
"l  c #73496E",
"z  c #70466D",
"x  c #7E5562",
"c  c #754C72",
"v  c #7D567A",
"b  c #7E587B",
"n  c #795176",
"m  c #815646",
"M  c #845A46",
"N  c #895F46",
"B  c #815648",
"V  c #845B49",
"C  c #885F48",
"Z  c #865D50",
"A  c #8C6347",
"S  c #8E6649",
"D  c #8F6849",
"F  c #906849",
"G  c #9A754F",
"H  c #96704E",
"J  c #9B7759",
"K  c #A17D4F",
"L  c #845D6C",
"P  c #815D7E",
"I  c #825C76",
"U  c #9C7963",
"Y  c #99766A",
"T  c #9D7B69",
"R  c #876276",
"E  c #896475",
"W  c #86627C",
"Q  c #8D6A7D",
"!  c #8A667A",
"~  c #9C7B74",
"^  c #9B7B7C",
"/  c #A07E60",
"(  c #A4814F",
")  c #BB9C4F",
"_  c #A78550",
"`  c #AC8B55",
"'  c #B39352",
"]  c #B79850",
"[  c #BB9D51",
"{  c #BFA152",
"}  c #C5A952",
"|  c #CAAE52",
" . c #C1A452",
".. c #D4BA54",
"X. c #D8BF53",
"o. c #D2B754",
"O. c #DBC353",
"+. c #DFC855",
"@. c #E3CC55",
"#. c #EAD557",
"$. c #EFDB58",
"%. c #EAD556",
"&. c #F1DD58",
"*. c #F4E159",
"=. c #845F81",
"-. c #8F5B84",
";. c #866283",
":. c #896786",
">. c #8E6D8C",
",. c #8F6D82",
"<. c #97698E",
"1. c #927185",
"2. c #9C7D82",
"3. c #92728F",
"4. c #98798C",
"5. c #9F6B92",
"6. c #947592",
"7. c #977895",
"8. c #997B95",
"9. c #9B7D99",
"0. c #AC6F9A",
"q. c #A8779C",
"w. c #B3729E",
"e. c #BB7AA6",
"r. c #9E8192",
"t. c #9E829C",
"y. c #A2848C",
"u. c #A1849D",
"i. c #A4899D",
"p. c #A4899B",
"a. c #A286A0",
"s. c #A58AA2",
"d. c #A88FA6",
"f. c #AA91A6",
"g. c #AD94AA",
"h. c #B19AAE",
"j. c #B49EB2",
"k. c #B6A1B4",
"l. c #B9A4B6",
"z. c #BAA6B9",
"x. c #BEABBC",
"c. c #BDA9B5",
"v. c #C281AC",
"b. c #C0AEBF",
"n. c #C3B1BE",
"m. c #DF97C2",
"M. c #C1AFC0",
"N. c #C5B4C3",
"B. c #C8B7C6",
"V. c #C8B8C7",
"C. c #CBBCCA",
"Z. c #F7AED8",
"A. c #F0A8D2",
"S. c #FBB2DB",
"D. c #CEC0CD",
"F. c #D0C3CF",
"G. c #D2C5D1",
"H. c #D5C9D5",
"J. c #D8CDD7",
"K. c #D9CED9",
"L. c #DDD3DD",
"P. c #E0D7DF",
"I. c #E0D7E0",
"U. c #E4DCE4",
"Y. c #E7E0E7",
"T. c #E8E1E7",
"R. c #E7E0E8",
"E. c #EAE4EA",
"W. c #EEE9EE",
"Q. c #F0EBEF",
"!. c #F1EDF1",
"~. c #F5F2F5",
"^. c #F8F5F7",
"/. c #F7F5F8",
"(. c #F8F6F8",
"). c #FFFFFF",
"_. c None",
/* pixels */
"_._._._._._._._._._._._._._._._._._._._._._._._._._._._._._._._._._._._._._._._._._._._._._._._._._._._._._._._._._._.X . _._._._._._._._._._._._._._._._._._._.",
"_._._._._._._._._._._._._._._._._._._._._._._._._._._._._._._._._._._._._._._._._._._._._._._._._._._._._._._._._._.< O _._._._._._._._._._._._._._._._._._._._.",
"_._._._._._._._._._._._._._._._._._._._._._._._._._._._._._._._._._._._._._._._._._._._._._._._._._._._._._._._._.1 C , _._._._._._._._._._._._._._._._._._._._.",
"_._._._._._._._._._._._._._._._._._._._._._._._._._._._._._._._._._._._._._._._._._._._._._._._._._._._._._._._., V A < _._._._._._._._._._._._._._._._._._._._.",
"_._._._._._._._._._._._._._._._._._._._._._._._._._._._._._._._._._._._._._._._._._._._._._._._._._._._._._._._.9 F F 9 _._._._._._._._._._._._._._._._._._._._.",
"_._._._._._._._._._._._._._._._._._._._._._._._._._._._._._._._._._._._._._._._._._._._._._._._._._._._._._._.# B F F S 8 @ _._._._._._._._._._._._._._._._._._.",
"_._._._._._._._._._._._._._._._._._._._._._._._._._._._._._._._._._._._._._._._._._._._._._._._._._._._._._._.O C S F S S r < # _._._._._._._._._._._._._._._._.",
"_._._._._._._._._._._._._._._._._._._._._._._._._._._._._._._._._._._._._._._._._._._._._._._._._._._._._._._.# V F S S F F S V 9 O O 8 w < # _._._._._._._._._.",
"_._._._._._._._._._._._._._._._._._._._._._._._._._._._._._._._._._._._._._._._._._._._._._._._._._._._._._._._.t S S F F S S F F A 8 8 S S V 8 # _._._._._._._.",
"_._._._._._._._._._._._._._._._._._._._._._._._._._._._._._._._._._._._._._._._._._._._._._._._._._._._._._._.# ; > > 8 M S F F S F F 8 9 S S F m - _._._._._._.",
"_._._._._._._._._._._._._._._._._._._._._._._._._._._._._._._._._._._._._._._._._._._._._._._._._._._._.o 6 m V t > ; $ ; > 8 0 M S F N : m N S F B # _._._._._.",
"_._._._._._._._._._._._._._._._._._._._._._._._._._._._._._._._._._._._._._._._._._._._._._._._._._._.; M F A 8 > m N S A N m 8 > > w x I 1.R t F S q _._._._._.",
"_._._._._._._._._._._._._._._._._._._._._._._._._._._._._._._._._._._._._._._._._._._._._._._._._._.< C F A > 0 S F S S S D F F B k x.W.).).U.g S F V # _._._._.",
"_._._._._._._._._._._._._._._._._._._._._._._._._._._._._._._._._._._._._._._._._._._._._._._._._.# B F S 0 9 F S F F F S S F A g K.W.C.C./.(.E t F A , _._._._.",
"_._._._._._._._._._._._._._._._._._._._._._._._._._._._._._._._._._._._._._._._._._._._._._._._._.w F F S 7 V S M M N S F F F 0 g.b.0.e.5.C.).3.= 8 A < _._._._.",
"_._._._._._._._._._._._._._._._._._._._._._._._._._._._._._._._._._._._._._._._._._._._._._._._.< A S F M > A e Q p.! s e 0 w 4.k.0.A.S.v.B.).y.m w > - _._._._.",
"_._._._._._._._._._._._._._._._._._._._._._._._._._._._._._._._._._._._._._._.X _._._._._._._.@ t F S C L k 9 g.(.).(.U.C.x.H.(.j.e.Z.Z.0.L.).Q A D 9 + _._._._.",
"_._._._._._._._._._._._._._._._._._._._._._._._._._._._._._._._._._._._._._._.  _._._._._._._.1 S F F e x.i.1 U.).).).).).).).).^.g.e.m.q.).L.u A S D 8 _._._._.",
"_._._._._._._._._._._._._._._._._._._._._._._._._._._._._._._._._._._._._._.# , _._._._._._., C F F A L !.Y.l F.).).).).).).).).).^.u.-.L.(.f.W B D S S < _._._.",
"_._._._._._._._._._._._._._._._._._._._._._._._._.X _._._._._._._._._._._._., t # _._._._.< V F F A > i.).).P.U.).).).).).).).).).).T.L.).k.x.L.f S S S t _._._.",
"_._._._._._._._._._._._._._._._._._._._._._._.% + _._._._._._._._._._._._._., A B < - , q C F F 9 > < C.).).).).).).).).).).).).).).).).z.j.(.).1.M D S A ; _._.",
"_._._._._._._._._._._._._._._._._._._._._._.7 0 _._._._._._._._._._._._._._.@ B F F A A F F A > 8 N g U.).).).).).!.U.~.).).).).).).).~.D.(.).).x.t D S S 7 _._.",
"_._._._._._._._._._._._._._._._._._._._._.1 S 9 _._._._._._._._._._._._._._._.1 S S F F F A > 0 F A E ^.).).).).K.h.N.z.Y.).).).).).).).).).).).U.g S S F 9 _._.",
"_._._._._._._._._._._._._._._._._._._._.# B F t _._._._._._._._._._._._._._._._.w S F S S > 0 F F m i.).).).).j.2 & l :.E.).).).).).).).).).).).~.E A S F 0 _._.",
"_._._._._._._._._._._._._._._._._._._._.< S D A % _._._._._._._._._._._._._._._.@ q A F 0 8 S F F 0 C.).).).~.t.H.T.a.:.L.).).).).).).).).).).).).r.M F F 9 _._.",
"_._._._._._._._._._._._._._._._._._._._.7 D D D 0 @ _._._._._._._._._._._._._._._._., q > A F F S x T.).).).~.W.).).^.H.~.).).).).).).).).).).).).h.t F F 7 _._.",
"_._._._._._._._._._._._._._._._._._._._.7 D S D D t # _._._._._._._._._._._._._._._._.X w F S F M 1.(.).).).).).).).).).).).).).).).).).).).).).).N.0 D S , + _.",
"_._._._._._._._._._._._._._._._._._._._.1 S D S S D V q % _._._._._._._._._._._._._._.@ B F D M w C.).).).).).).).).).).).).).).).).).).).).).).).H.t F m 6 1 _.",
"_._._._._._._._._._._._._._._._._._._._.% A D D D S D D A 0 1 # _._._._._._._._._._._., A D M L C.).).).).).).).).).).).).).).).).).).).).).).).).I.f F 7 m r + ",
"_._._._._._._._._._._._._._._._._._._._._.w D D D D D D D D S A 9 , _._._._._._._._._., A S p J.).).).~.).).).).).).).).).).).).).).).).).).).).).U.g 0 7 S A % ",
"_._._._._._._._._._._._._._._._._._._._._.# t 0 7 7 6 9 0 B S D D A q @ _._._._._._._., A A L ~.).).L.>.J.).).).).).).).).).).).).).).).).).).).).E.a : A S S < ",
"_._._._._._._._._._._._._._._._._._._._._.# : 9 r M r r 9 6 > 0 S S S t @ _._._._._._.@ V A L ~.).).U.g.K.).).).).).).).).).).).).).).).).).).).).E.3 M F S D 1 ",
"_._._._._._._._._._._._._._._._._._._.@ 1 V S F F F F F F F V 8 < r S D 9 _._._._._._._.e S g T.).).).).).).(.T.).).).).).).).).).).).).).).).).).Y.g S D S F < ",
"_._._._._._._._._._._._._._._._._._., m F F F F S F F A S F F F V > 0 D A % _._._._._._.= A e j.).).).).).).N.b.).).).).).).).).).H.H.).).).).).).U.g S S D S < ",
"_._._._._._._._._._._._._._._._._.< C F F F A F F A F F S A A C D A 7 9 D 8 _._._.c ;.6.W e S s z./.).^.L.z.d./.).).).).).).!.H.f.d.E.).).).).).).L.f S S F M # ",
"_._._._._._._._._._._._._._._._.< A F S F F F S F F M e > > > > > 8 0 , 9 7 h s.C.U.~.).~.1.m A e ! k.j.c ;.l.N.N.C.N.x.j.d.a.h.K.).).).).).).).).G.0 D D D 0 _.",
"_._._._._._._._._._._._._._._.- V F S S F F A F B > > 0 V A C 0 6 ; O o 3 f.Y.).).).).).).T.R m F M 0 0 t t e 0 0 8 W C.H.U.~.).).).).).).).).).).C.0 D D A , _.",
"_._._._._._._._._._._._._._._.0 F F S F F F S w > B F F F B > 8 6 ;   l H.).).).).).).).).).R.,.0 S F F F F F F F r j.).).).).).).).).).).).).).).n.t D S < _._.",
"_._._._._._._._._._._._._._.< A F S F S F A > 8 A F F F 0 > V w # _.;.R.).).).).).).).).).).).~.s.e A F S S S F F e C.).).).).).).).).).).).).).).j.r A 1 _._._.",
"_._._._._._._._._._._._._._.0 F S S F S A 8 9 F F F F B > A 9 _._.v U.).).).).).).).).).).).).).).z.p A S F F S S a U.).).).).).).).).).).).).).).r.9 , _._._._.",
"_._._._._._.# . _._._._._., N S F S F F 9 8 F F S F S 7 m N - _._.N.).).).).).).).).).).).).).).).).s.m F S F S 0 d.).).).).).).).).).).).).).).(.P o _._._._._.",
"_._._.@ 1 e , X _._._._._.1 S S F S F V > S S S S F V > F 9 _._.6.^.).).).).).).).).).).).).).).).).L.p F S S 9 8.~.).).).).).).).).).).).).).).T.c _._._._._._.",
"_._.# 0 S w _._._._._._._.w F S S F S > m F F S S F 9 0 F < _._.C.).).).).).).).).).).).).).).).).).N.0 A 0 s g.~.).).).).).).).).).).).).).).).D._._._._._._._.",
"_.@ t F N , _._._._._._._.t F F S F B > F S F S F S 8 V C - _.v E.).).).).).).).).).).).).).).).C.g.j i E f.U.).).).).).).).).).).).).).).).).).s._._._._._._._.",
"_.1 S F B @ _._._._._._.# M F S S S 7 m F F S S F A > S B # _.7.).).).).).).).).).).).).).).).(.F.V.H.U./.).).).).).).).).).).).).).).).).).).Q.t.s._._._._._._.",
"# B F F V @ _._._._._._., S S F F N > S S S S F S A > F t _._.g.).).).).).).).).).).).).).).).).).).).).).).).).).).).).).).).).).).).).).).).C.x.).k._._._._._.",
", A S F A < _._._._._._.9 F S S F 0 9 F F S F S F M 7 F 9 _._.j.).).).).).).).).).).).).).).).).^.).).).).).).).).).).).).).).).).).).).).).(.s.E.).).g._._._._.",
"< F S F F B # _._._._.< A F F F F > M F S S F S F m 8 F 7 _._.j.).).).).).).).).).).).).).).).).C.H.).).).).).).).).).).).).).).).).).).).).G.j.).).).~.3._._._.",
"1 S F S S S B 1 , , q C F F A F N > S S S F F S F m 8 S < _._.d.).).).).).).).).).).).).).).).).H.z.).).).).).).).).).).).).).).).).).).).(.s.T.).).).).H.h _._.",
"< F S F F S F F S A F S F S F F 0 9 F F S S S F F r 9 V # _._.u.).).).).).).).).).).).).).).).).U.h.).).).).).).).).).).).).).).).).).).).N.z.).).).).).).t._._.",
"- N S F S F F A S S F F S F F A 7 M F S F S S S F 0 r 8 _._._.>.^.).).).).).).).).).).).).).).).E.g.).).).).).).).).).).).).).).).).).).U.s.~.).).).).).).C._._.",
"_.e F S S F F F S F S S F F F C > S S F S F F S F 8 0 < _._._.n U.).).).).).).).).).).).).).).).T.g.).).).).).).).).).).).).).).).).)./.3.N.).).).).).).).W.v _.",
"_.< F F S F F F F S F F S S F e 9 F F S F S S F S > > _._._._._.N.).).).).).).).).).).).).).).).U.j.).).).).).).).).).).).).).).).).).h.* N.).).).).).).).(.7._.",
"_._.e F F A A F S F S A S F A > M F S F S F S S A ; # _._._._._.>.~.).).).).).).).).).).).).).).C.x.).).).).).U.).).).).).).).).).).c._._.x.).).).).).).).).g._.",
"_._., C F F F F S F F F F F B 8 F S F S S F S F 9   _._._._._._._.G.).).).).).).).).).).).).).).k.J.).).).).^.g.~.).).).).).).).).~.;._._.F.).).).).).).).).h._.",
"_._._.< C F A F S S F A F F > B F S S F S S S S , _._._._._._._._.s.).).).).).).).).).).).).).~.s.~.).).).).~.d.^.).).).).).).).).G._._.P W.).).).).).).).).g._.",
"_._._._.< V F S F S F F F 9 8 F F S S S F S S t @ _._._._._._._._.c W.).).).).).).).).).).).).V.z.).).).).).T.g.).).).).).).).).).d._._.z.).).).).).).).).).a._.",
"_._._._._., e S F F F F B > N F S F F S S F A < _._._._._._._._.n =.K.).).).).).).).).).).).!.u.W.).).).).).L.k.).).).).).).).).!.;._.b W.).).).).).).).).~.>._.",
"_._._._._._.@ > m S F V : B F F S S F S S S 8 _._._._._.4 h ;.j.Y.b.G.).).).).).).).).).).).h.C.).).).).).).N.C.).).).).).).).).H._._.c W.).).).).).).).).P.h _.",
"_._._._._._._._.@ , 1 : B F F F F S S S F w _._._._._.;.G.U.~.).).k.K.).).).).).).).).).).j.t.!.(.).).).(.!.d.U.).).).).).).).).z._._.V n.).).).).).).).).j._._.",
"_._._._.X _._._._.# 8 N F F F F S S F S 9 @ _._._._.v L.).).).).~.s.!.).).).).).).).).~.h.2 h P >.6.8.7.>.n >.(.).).).).).).).).a._._.) ~ !.).).).).).).E.=._._.",
"_._._._._.  = w m C F F F F F A F S C > _._._._._.b L.).).).).).z.b.).).).).).).).(.H.3._._._._._._._._._._.N.).).).).).).).).(.6._._.o.[ l.).).).).).).g._._._.",
"_._._._._._._.1 0 A F F F F F S C w , _._._._._.>.U.).).).).E.d.h.^.).).).).).).E.7.5 _._._._._._._._._._.;.!.).).).).).).).).~.;._._.| #.U L.).).).).C.5 _._._.",
"_._._._._._._._._.- 1 8 0 9 w : # _._._._._.c h.!.).).).).).P.t.).).).).).).).).F._._._._._._._._._._._._.b.).).).).).).).).).Q.b _._.[ *.X.^ T.).).H.c _._._._.",
"_._._._._._._._._._._._._._._._._._._._.5 d.U.).).).).).).).~.d.~.).).).).).).).G._._._._._._._._._._._._.N.).).).).).).).).).!.v _._._ $.&.| ^ P.V.c _._._._._.",
"_._._._._._._._._._._._._._._._._._._._.z.).).).).).).).).).).h.L.).).).).).).).U.z _._._._._._._._._._._.9.).).).).).).).).).~.;._._.V #.&.&.] y 5 _._._._._._.",
"_._._._._._._._._._._._._._._._._._._.l W.).).).).).).).).).).C.N.).).).).).).).~.;._._._._._._._._._._._.c U.).).).).).).).).(.3._._._.'  .G q _._._._._._._._.",
"_._._._._._._._._._._._._._._._._._._.t c.).).).).).).).).).).U.g.).).).).).).).).d._._._._._._._._._._._._.c.).).).).).).).).).s._._._., _._._._._._._._._._._.",
"_._._._._._._._._._._._._._._._._._._.{ / H.).).).).).).).).).(.d.W.).).).).).).).G._._._._._._._._._._._._.6.^.).).).).).).).).z._._._._._._._._._._._._._._._.",
"_._._._._._._._._._._._._._._._._._._.[ @.Y H.).).).).).).).).).s.G.).).).).).).).~.:._._._._._._._._._._._.h P.).).).).).).).).H._._._._._._._._._._._._._._._.",
"_._._._._._._._._._._._._._._._._._._.F $.O.U c./.).).).).).).c.4 h.).).).).).).).).z._._._._._._._._._._._._.z.).).).).).).).).W.v _._._._._._._._._._._._._._.",
"_._._._._._._._._._._._._._._._._._._.3 } *.%.` 2.N.W.(.).W.s._._.3.^.).).).).).).).E.v _._._._._._._._._._._.7.(.).).).).).).).).9._._._._._._._._._._._._._._.",
"_._._._._._._._._._._._._._._._._._._._.Z @.&.&.O.' T 2.9.=._._._.l U.).).).).).).).).h._._._._._._._._._._._.c U.).).).).).).).).x._._._._._._._._._._._._._._.",
"_._._._._._._._._._._._._._._._._._._._._.F +.&.&.$.| V . _._._._._.N.).).).).).).).).U.c _._._._._._._._._._._.C.).).).).T.G.N.b.d.& _._._._._._._._._._._._._.",
"_._._._._._._._._._._._._._._._._._._._._._.V  .} H 1 _._._._._._._.u.).).).).!.G.h.y.^ a _._._._._._._._._._._.h.).~.N.y.Y ` ] [ ' q _._._._._._._._._._._._._.",
"_._._._._._._._._._._._._._._._._._._._._._._._._._._._._._._._._._.n E.).T.h.~ ` } O.@.o.i _._._._._._._._._._.8.F.2.` O.#.&.*.&.&.G _._._._._._._._._._._._._.",
"_._._._._._._._._._._._._._._._._._._._._._._._._._._._._._._._._._._.g.N.Y [ #.&.&.&.&.&._ _._._._._._._._._._.2 J O.&.&.$.&.$.&.&.' _._._._._._._._._._._._._.",
"_._._._._._._._._._._._._._._._._._._._._._._._._._._._._._._._._._._.& Z @.*.&.$.$.&.&.&.O.w _._._._._._._._._._.] *.$.&.$.$.$.$.*.| _._._._._._._._._._._._._.",
"_._._._._._._._._._._._._._._._._._._._._._._._._._._._._._._._._._._._.1 J ..#.#.$.%.%.@...Z _._._._._._._._._._.q { #.$.$.$.$.$.$.X.u _._._._._._._._._._._._.",
"_._._._._._._._._._._._._._._._._._._._._._._._._._._._._._._._._._._._._._.1 Z Z C V V p 1 _._._._._._._._._._._._.3 V H H F H H H S % _._._._._._._._._._._._."
};
