/* XPM */
static char *result[] = {
/* columns rows colors chars-per-pixel */
"80 80 221 2 ",
"   c #25347E",
".  c #2A337D",
"X  c #34337D",
"o  c #3B317D",
"O  c #492F7C",
"+  c #472F7C",
"@  c #562D7C",
"#  c #43307C",
"$  c #682B7B",
"%  c #76297B",
"&  c #DE2C26",
"*  c #DE2E29",
"=  c #DF3326",
"-  c #DF332D",
";  c #DF3530",
":  c #E03D26",
">  c #E03726",
",  c #E03B34",
"<  c #E13E39",
"1  c #E03731",
"2  c #E24426",
"3  c #E34927",
"4  c #E55D26",
"5  c #E45326",
"6  c #E1413A",
"7  c #E34D3B",
"8  c #E45535",
"9  c #E66326",
"0  c #E76929",
"q  c #EA7A28",
"w  c #E76538",
"e  c #EA7A37",
"r  c #8C2579",
"t  c #842C7D",
"y  c #85267A",
"u  c #93257A",
"i  c #952A7D",
"p  c #E34A46",
"a  c #E55A56",
"s  c #E4524E",
"d  c #E7625E",
"f  c #E97644",
"g  c #E86A66",
"h  c #E97370",
"j  c #33924F",
"k  c #3A954E",
"l  c #228B53",
"z  c #298E51",
"x  c #228D5B",
"c  c #2A8F59",
"v  c #399559",
"b  c #2C915E",
"n  c #218E64",
"m  c #279168",
"M  c #349565",
"N  c #239173",
"B  c #25947C",
"V  c #369A7D",
"C  c #499B4B",
"Z  c #519E49",
"A  c #439A5B",
"S  c #5BA248",
"D  c #52A058",
"F  c #69A744",
"G  c #76AD43",
"H  c #79B04F",
"J  c #439E73",
"K  c #57A571",
"L  c #74B063",
"P  c #88B43E",
"I  c #9EBC39",
"U  c #A2BE37",
"Y  c #EC8B26",
"T  c #EC8829",
"R  c #EE9426",
"E  c #EE9B26",
"W  c #EF9B2D",
"Q  c #EE922A",
"!  c #EF9936",
"~  c #EE9239",
"^  c #ECA327",
"/  c #EBAC27",
"(  c #EBAA29",
")  c #EAB529",
"_  c #E9BB29",
"`  c #EAB227",
"'  c #EEA738",
"]  c #F0A33B",
"[  c #EBBA37",
"{  c #B9C734",
"}  c #ABC236",
"|  c #DCD62C",
" . c #D6D32E",
".. c #C6CD33",
"X. c #CFD133",
"o. c #E8C129",
"O. c #E7CB2A",
"+. c #E7C429",
"@. c #E7D42A",
"#. c #E5D92B",
"$. c #E8D729",
"%. c #E9C834",
"&. c #E6D938",
"*. c #92B94A",
"=. c #85B869",
"-. c #ED8D54",
";. c #F1A646",
":. c #EFB046",
">. c #F1A958",
",. c #F0B553",
"<. c #EC8571",
"1. c #F1A67B",
"2. c #A9C452",
"3. c #CED44E",
"4. c #E9DE49",
"5. c #EBD14E",
"6. c #EBE25A",
"7. c #C8D465",
"8. c #EFD863",
"9. c #F1C366",
"0. c #EFE576",
"q. c #F1E279",
"w. c #243C82",
"e. c #2E3D83",
"r. c #343A81",
"t. c #473A83",
"y. c #5B3982",
"u. c #244A8B",
"i. c #264387",
"p. c #38498B",
"a. c #2C508F",
"s. c #255894",
"d. c #385994",
"f. c #3B508F",
"g. c #22649B",
"h. c #34629A",
"j. c #2278A7",
"k. c #2A72A4",
"l. c #4E4F8F",
"z. c #625695",
"x. c #4F629B",
"c. c #71649D",
"v. c #4578A8",
"b. c #982F80",
"n. c #9A3382",
"m. c #9B3A86",
"M. c #803582",
"N. c #A03C88",
"B. c #8D5596",
"V. c #A2448D",
"C. c #AB5698",
"Z. c #A34B91",
"A. c #B0619E",
"S. c #A177AB",
"D. c #22968E",
"F. c #279684",
"G. c #229999",
"H. c #349D8F",
"J. c #1F9CAC",
"K. c #1F9BA7",
"L. c #1F8CB4",
"P. c #1F9DB3",
"I. c #1E95BA",
"U. c #1E9DBD",
"Y. c #1F91B7",
"T. c #1E82AD",
"R. c #2383AE",
"E. c #209AA4",
"W. c #279ABB",
"Q. c #348FB5",
"!. c #21A0BE",
"~. c #31A3AF",
"^. c #38A19A",
"/. c #409BBD",
"(. c #5EA8A6",
"). c #1E9FC0",
"_. c #329FC0",
"`. c #2BA4C2",
"'. c #26A2C2",
"]. c #3EA6C5",
"[. c #49B1C7",
"{. c #59B6CC",
"}. c #4EB4CD",
"|. c #71B0CB",
" X c #B28FB9",
".X c #8690B8",
"XX c #ED8F8A",
"oX c #C488B6",
"OX c #F3B6B3",
"+X c #96CAB5",
"@X c #A2CCA8",
"#X c #F5D38D",
"$X c #EFEA8B",
"%X c #FADEBB",
"&X c #EDEEB3",
"*X c #C8A2C6",
"=X c #CE9AC1",
"-X c #B8D3D3",
";X c #9DD0DF",
":X c #F8D0CE",
">X c #F8EBC9",
",X c #D7DEE4",
"<X c #D8DFE4",
"1X c #DBE1E6",
"2X c #DEE4E8",
"3X c #D3EDF3",
"4X c #E1E6EA",
"5X c #E5EAEE",
"6X c #E8ECEF",
"7X c #F8E6E9",
"8X c #EBEEF1",
"9X c #EDF1F3",
"0X c #EFF8FA",
"qX c #F2F4F6",
"wX c #F5F7F8",
"eX c #F6F9FA",
"rX c #FEFEFE",
"tX c #FBFAF5",
"yX c #FDF9EA",
"uX c #D7E8CD",
"iX c None",
/* pixels */
"iXiXiXiXiXiXiXiXiXiXiXiXiXiXiXiXiXiXiXiXiXiXiXiXiXiXiXiXiXiXiXiXiXiXiXiXiXiXiXiXiXiXiXiXiXiXiXiXiXiXiXiXiXiXiXiXiXiXiXiXiXiXiXiXiXiXiXiXiXiXiXiXiXiXiXiXiXiXiXiX",
"iXiXiXiXiXiXiXiXiXiXiXiXiXiXiXiXiXiXiXiXiXiXiXiXiXiXiXiXiXiXiXiXiXiXiXiXiXiXiXiXiXiXiXiXiXiXiXiXiXiXiXiXiXiXiXiXiXiXiXiXiXiXiXiXiXiXiXiXiXiXiXiXiXiXiXiXiXiXiXiX",
"iXiXiXiXiXiXiXiXiXiXiXiXiXiXiXiXiXiXiXiXiXiXiXiXiXiXiXiXiXiXiXiXiXiXiXiXiXiXiXiXiXiXiXiXiXiXiXiXiXiXiXiXiXiXiXiXiXiXiXiXiXiXiXiXiXiXiXiXiXiXiXiXiXiXiXiXiXiXiXiX",
"iXiXiXiXiXiXiXiXiXiXiXiXiXiXiXiXiXiXiXiXiXiXiXiXiXiXiXiXiXiXiXiXiXiXiXiXiXiXiXiXiXiXiXiXiXiXiXiXiXiXiXiXiXiXiXiXiXiXiXiXiXiXiXiXiXiXiXiXiXiXiXiXiXiXiXiXiXiXiXiX",
"iXiXiXiXiXiXiXiXiXiXiXiXiXiXiXiXiXiXiXiXiXiXiXiXiXiXiXiXiXiXiXiXiXiXiXiXiXiXiXiXiXiXiXiXiXiXiXiXiXiXiXiXiXiXiXiXiXiXiXiXiXiXiXiXiXiXiXiXiXiXiXiXiXiXiXiXiXiXiXiX",
"iXiXiXiXiXiXiXiXiXiXiXiXiXiXiXiXiXiXiXiXiXiXiXiXiXiXiXiXiXiXiXiXiXiXiXiXiXiXiXiXiXiXiXiXiXiXiXiXiXiXiXiXiXiXiXiXiXiXiXiXiXiXiXiXiXiXiXiXiXiXiXiXiXiXiXiXiXiXiXiX",
"iXiXiXiXiXiXiXiXiXiXiXiXiXiXiXiXiXiXiXiXiXiXiXiXiXiXiXiXiXiXiXiXiXiXiXiXiXiXiXiXiXiXiXiXiXiXiXiXiXiXiXiXiXiXiXiXiXiXiXiXiXiXiXiXiXiXiXiXiXiXiXiXiXiXiXiXiXiXiXiX",
"iXiXiXiXiXiXiXiXiXiXiXiXiXiXiXiXiXiXiXiXiXiXiXiXiXiXiXiXiXiXiXiXiXiXiXiXiXiXiXiXiXiXiXiXiXiXiXiXiXiXiXiXiXiXiXiXiXiXiXiXiXiXiXiXiXiXiXiXiXiXiXiXiXiXiXiXiXiXiXiX",
"iXiXiXiXiXiXiXiXiXiXiXiXiXiXiXiXiXiXiXiXiXiXiXiXiXiXiXiXiXiXiXiXiXiXiXiXiXiXiXiXiXiXiXiXiXiXiXiXiXiXiXiXiXiXiXiXiXiXiXiXiXiXiXiXiXiXiXiXiXiXiXiXiXiXiXiXiXiXiXiX",
"iXiXiXiXiXiXiXiXiXiXiXiXiXiXiXiXiXiXiXiXiXiXiXiXiXiXiXiXiXiXiXiXiXiXiXiXiXiXiXiXiXiXiXiXiXiXiXiXiXiXiXiXiXiXiXiXiXiXiXiXiXiXiXiXiXiXiXiXiXiXiXiXiXiXiXiXiXiXiXiX",
"iXiXiXiXiXiXiXiXiXiXiXiXiXiXiXiXiXiXiXiXiXiXiXiXiXiXiXiXiXiXiXiXiXiXiXiXiXiXiXiXiXiXiXiXiXiXiXiXiXiXiXiXiXiXiXiXiXiXiXiXiXiXiXiXiXiXiXiXiXiXiXiXiXiXiXiXiXiXiXiX",
"iXiXiXiXiXiXiXiXiXiXiXiXiXiXiXiXiXiXiXiXiXiXiXiXiXiXiXiXiXiXiXiXiXiXiXiXiXiXiXiXiXiXiXiXiXiXiXiXiXiXiXiXiXiXiXiXiXiXiXiXiXiXiXiXiXiXiXiXiXiXiXiXiXiXiXiXiXiXiXiX",
"iXiXiXiXiXiXiXiXiXiXiXiXiXiXiXiXiXiXiXiXiXiXiXiXiXiXiXiXiXiXiXiXiXiXiXiXiXiXiXiXiXiXiXiXiXiXiXiXiXiXiXiXiXiXiXiXiXiXiXiXiXiXiXiXiXiXiXiXiXiXiXiXiXiXiXiXiXiXiXiX",
"iXiXiXiXiXiXiXiXiXiXiXiXiXiXiXiXiXiXiXiXiXiXiXiXiXiXiXiXiXiXiXiXiXiXiXiXiXiXiXiXiXiXiXiXiXiXiXiXiXiXiXiXiXiXiXiXiXiXiXiXiXiXiXiXiXiXiXiXiXiXiXiXiXiXiXiXiXiXiXiX",
"iXiXiXiXiXiXiXiXiXiXiXiXiXiXiXiXiXiXiXiXiXiXiXiXiXiXiXiXiXiXiXiXiXiXiXiXiXiXiXiXiXiXiXiXiXiXiXiXiXiXiXiXiXiXiXiXiXiXiXiXiXiXiXiXiXiXiXiXiXiXiXiXiXiXiXiXiXiXiXiX",
"iXiXiXiXiXiXiXiXiXiXiXiXiXiXiXiXiXiXiXiXiXiXiXiXiXiXiXiXiXiXiXiXiXiXiXiXiXiXiXiXiXiXiXiXiXiXiXiXiXiXiXiXiXiXiXiXiXiXiXiXiXiXiXiXiXiXiXiXiXiXiXiXiXiXiXiXiXiXiXiX",
"iXiXiXiXiXiXiXiXiXiXiXiXiXiXiXiXiXiXiXiXiXiXiXiXiXiXiXiXiXiXiXiXiXiXiXiXiXiXiXiXiXiXiXiXiXiXiXiXiXiXiXiXiXiXiXiXiXiXiXiXiXiXiXiXiXiXiXiXiXiXiXiXiXiXiXiXiXiXiXiX",
"iXiXiXiXiXiXiXiXiXiXiXiXiXiXiXiXiXiXiXiXiXiXiXiXiXiXiXiXiXiXiXiXiXiXiXiXiXiXiXiXiXiXiXiXiXiXiXiXiXiXiXiXiXiXiXiXiXiXiXiXiXiXiXiXiXiXiXiXiXiXiXiXiXiXiXiXiXiXiXiX",
"iXiXiXiXiXiXiXiXiXiXiXiXiXiXiXiXiXiXiXiXiXiXiXiXiXiXiXiXiXiXiXiXiXiXiXiXiXiXiXiXiXiXiXiXiXiXiXiXiXiXiXiXiXiXiXiXiXiXiXiXiXiXiXiXiXiXiXiXiXiXiXiXiXiXiXiXiXiXiXiX",
"iXiXiXiXiXiXiXiXiXiXiXiXiXiXiXiXiXiXiXiXiXiXiXiXiXiXiXiXiXiXiXiXiXiXiXiXiXiXiXiXiXiXiXiXiXiXiXiXiXiXiXiXiXiXiXiXiXiXiXiXiXiXiXiXiXiXiXiXiXiXiXiXiXiXiXiXiXiXiXiX",
"iXiXiXiXiXiXiXiXiXiXiXiXiXiXiXiXiXiXiXiXiXiXiXiXiXiXiXiXiXiXiXiXiXiXiXiXiXiXiXiXiXiXiXiXiXiXiXiXiXiXiXiXiXiXiXiXiXiXiXiXiXiXiXiXiXiXiXiXiXiXiXiXiXiXiXiXiXiXiXiX",
"iXiXiXiXiXiXiXiXiXiXiXiXiXiXiXiXiXiXiXiXiXiXiXiXiXiXiXiXiXiXiXiXiXiXiXiXiXiXiXiXiXiXiXiXiXiXiXiXiXiXiXiXiXiXiXiXiXiXiXiXiXiXiXiXiXiXiXiXiXiXiXiXiXiXiXiXiXiXiXiX",
"iXiXiXiXiXiXiXiXiXiXiXiXiXiXiXiXiXiXiXiXiXiXiXiXiXiXiXiXiXiXiXiXiX- - * * & & & & & & & & & & & - iXiXiXiXiXiXiXiXiXiXiXiXiXiXiXiXiXiXiXiXiXiXiXiXiXiXiXiXiXiXiX",
"iXiXiXiXiXiXiXiXiXiXiXiXiXiXiXiXiXiXiXiXiXiXiXiXiXiXiXiXiXiX- = & & = : 2 3 4 9 9 9 9 4 5 5 = = & & * - iXiXiXiXiXiXiXiXiXiXiXiXiXiXiXiXiXiXiXiXiXiXiXiXiXiXiXiX",
"iXiXiXiXiXiXiXiXiXiXiXiXiXiXiXiXiXiXiXiXiXiXiXiXiXiXiX; = & & = 5 0 q Y R R R E E E R R R R Y Y 0 4 2 = & * - iXiXiXiXiXiXiXiXiXiXiXiXiXiXiXiXiXiXiXiXiXiXiXiXiX",
"iXiXiXiXiXiXiXiXiXiXiXiXiXiXiXiXiXiXiXiXiXiXiXiXiX; * & = 5 q T Q E ^ ^ / ) _ _ +.+.+._ ` ` ^ ^ E E Y q 4 2 & & - iXiXiXiXiXiXiXiXiXiXiXiXiXiXiXiXiXiXiXiXiXiXiX",
"iXiXiXiXiXiXiXiXiXiXiXiXiXiXiXiXiXiXiXiXiXiXiXiX* & : 9 T R E ^ ` +.O.$.#.| $.| | | |  .| $.$.$.O._ / E R Y 0 2 & & - iXiXiXiXiXiXiXiXiXiXiXiXiXiXiXiXiXiXiXiXiX",
"iXiXiXiXiXiXiXiXiXiXiXiXiXiXiXiXiXiXiXiXiXiX- & = 4 T ] E ` +.@.$.| ..} P G F S Z Z Z S F P } {  .$.$.O.) ^ ' Q 0 2 & - iXiXiXiXiXiXiXiXiXiXiXiXiXiXiXiXiXiXiXiX",
"iXiXiXiXiXiXiXiXiXiXiXiXiXiXiXiXiXiXiXiXiX* & 3 q R E ) O.$.| { P S j l z l l x n x x x l l z z C G }  .$.@._ ^ R Y 4 > & - iXiXiXiXiXiXiXiXiXiXiXiXiXiXiXiXiXiX",
"iXiXiXiXiXiXiXiXiXiXiXiXiXiXiXiXiXiXiX- & = 9 Q E ` O.$. .I S j l x n B D.G.K.J.J.J.P.J.E.G.B N x l z C P ..#.@._ E Q q 2 & - iXiXiXiXiXiXiXiXiXiXiXiXiXiXiXiXiX",
"iXiXiXiXiXiXiXiXiXiXiXiXiXiXiXiXiXiX- & 2 q R ^ o.#.| I Z z x N D.K.U.U.).I.I.L.L.L.L.Y.I.U.).U.J.G.N x l j P X.$.O.( E T 5 & - iXiXiXiXiXiXiXiXiXiXiXiXiXiXiXiX",
"iXiXiXiXiXiXiXiXiXiXiXiXiXiXiXiXiX- & 3 T ! ( @.&.{ S z x N E.P.).I.L.g.s.u.u.w.w.w.w.w.u.s.g.j.Y.U.U.K.F.x l k I &.@.) ' Q 4 & - iXiXiXiXiXiXiXiXiXiXiXiXiXiXiX",
"iXiXiXiXiXiXiXiXiXiXiXiXiXiXiXiX- & 3 T E ) @.| P j l N E.).I.T.g.u.    . X o # O + + o o . .   i.s.j.I.U.J.F.l l F X.$.+.E R 9 1 1 iXiXiXiXiXiXiXiXiXiXiXiXiXiX",
"iXiXiXiXiXiXiXiXiXiXiXiXiXiXiX- - <.Q W [ @.X.F z x D.W.U.T.s.w.  . O $ % y r r r u r r r % $ @ X . w.u.j.I.U.K.n l C } #.O.' R -.p * iXiXiXiXiXiXiXiXiXiXiXiXiX",
"iXiXiXiXiXiXiXiXiXiXiXiXiXiX; & 3 ~ E _ #...S c m K.!.L.s.w.. # @ y u u u i i i i n.i i u u u u y % + . w.u.T.W.P.F.l A } #.+.E W 4 & * iXiXiXiXiXiXiXiXiXiXiXiX",
"iXiXiXiXiXiXiXiXiXiXiXiXiXiX* 7 q ' _ &...Z c B P.).R.u.  o $ r u u i iXiXiXiXiXiXiXiXiXiXiXiXb.u u r % O . w.k.I.).D.M j I #.%.] Q 8 1 1 iXiXiXiXiXiXiXiXiXiXiX",
"iXiXiXiXiXiXiXiXiXiXiXiXiX- - q E / 4.7.Z l B P.U.g.i.e.@ r u i iXiXiXiXiXiXiXiXiXiXiXiXiXiXiXiXiXiXi u u $ o e.s.Y.!.G.x j 2.6.o.E Y 2 > iXiXiXiXiXiXiXiXiXiXiX",
"iXiXiXiXiXiXiXiXiXiXiXiXp g -.Y ^ &. .F z N [.].s.  X % i i b.iXiXiXiXiXiXiXiXiXiXiXiXiXiXiXiXiXiXiXiXiXi u t O   u.Q.{.G.l k { &.[ R ~ XX< iXiXiXiXiXiXiXiXiXiX",
"iXiXiXiXiXiXiXiXiXiXiXiX& 8 ! ^ O.#.G z m !.W.h.  t.t u V.iXiXiXiXiXiXiXiXiXiXiXiXiXiXiXiXiXiXiXiXiXiXiXiXZ.i u y.  u.Q.!.D.x Z X.@.^ Q f & * iXiXiXiXiXiXiXiXiX",
"iXiXiXiXiXiXiXiXiXiXiX< h 1.' :.&.U v m [.].g.e.o t i i iXiXiXiXiXiXiXiXiXiXiXiXiXiXiXiXiXiXiXiXiXiXiXiXiXiXiXi i @ . a.W.{.B M G &.%.W >.XX< iXiXiXiXiXiXiXiXiX",
"iXiXiXiXiXiXiXiXiXiXiX6 OX>X' &.3.A x G.!.j.  l.M.u b.iXiXiXiXiXiXiXiXiXiXiXiXiXiXiXiXiXiXiXiXiXiXiXiXiXiXiXiXiXu r @ i.s._.!.M j 2.4.) #X7Xs < iXiXiXiXiXiXiXiX",
"iXiXiXiXiXiXiXiXiXiX, , -.>.%.&.=.l (.[.R.f.o % m.m.iXiXiXiXiXiXiXiXiXiXiXiXiXiXiXiXiXiXiXiXiXiXiXiXiXiXiXiXiXiXiXm.b.t.p.g.`.(.l K 3.@.,.>.7 1 iXiXiXiXiXiXiXiX",
"iXiXiXiXiXiXiXiXiXiXp 8 Q ( &...k n J.W.s.  $ n.m.iXiXiXiXiXiXiXiXiXiXiXiXiXiXiXiXiXiXiXiXiXiXiXiXiXiXiXiXiXiXiXiXiXn.t o i.Q.'.F.v *.&.) W w , h iXiXiXiXiXiXiX",
"iXiXiXiXiXiXiXiXiXa s e ] 8.&.H M H.'.k.f.S.i m.iXiXiXiXiXiXiXiXiXiXiXiXiXiXiXiXiXiXiXiXiXiXiXiXiXiXiXiXiXiXiXiXiXiXm.n.B.x.s.!.~.M S 3.5.,.~ 7 d iXiXiXiXiXiXiX",
"iXiXiXiXiXiXiXiXiX; 2 T :.q.3.A m ~.W.a.l.B.N.iXiXiXiXiXiXiXiXiXiXiXiXiXiXiXiXiXiXiXiXiXiXiXiXiXiXiXiXiXiXiXiXiXiXiXiXV.Z.z.p.j.`.V l *.0.,.! 5 * d iXiXiXiXiXiX",
"iXiXiXiXiXiXiXiXiX; w ;.[ $XuXK H.`.k.e.@ r V.iXiXiXiXiXiXiXiXiXiXiXiXiXiXiXiXiXiXiXiXiXiXiXiXiXiXiXiXiXiXiXiXiXiXiXiXiXm.% e.h._.Q.J @X&X5.;.e 6 < iXiXiXiXiXiX",
"iXiXiXiXiXiXiXiXp 6 -.,.%.$X-XJ ~._.d.l.B.n.iXiXiXiXiXiXiXiXiXiXiXiXiXiXiXiXiXiXiXiXiXiXiXiXiXiXiXiXiXiXiXiXiXiXiXiXiXiXN.i z.f.Q.}.V @X&X4.:.>.7 < iXiXiXiXiXiX",
"iXiXiXiXiXiXiXiXs 6 ~ ;.8.3.A V }.|.p.z.V.V.iXiXiXiXiXiXiXiXiXiXiXiXiXiXiXiXiXiXiXiXiXiXiXiXiXiXiXiXiXiXiXiXiXiXiXiXiXiXiXN.c.p.(.{.^.M *.6.9.>.w p iXiXiXiXiXiX",
"iXiXiXiXiXiXiXiXXX8 ! [ 4.7.(.H.[.v.p.B.Z.iXiXiXiXiXiXiXiXiXiXiXiXiXiXiXiXiXiXiXiXiXiXiXiXiXiXiXiXiXiXiXiXiXiXiXiXiXiXiXiXC. Xl.d._.~.J L 6.8.>.w g OXiXiXiXiXiX",
"iXiXiXiXiXiXiXXXa <.;.[ 8.&X6X-X{.d.l.*X=XiXiXiXiXiXiXiXiXiXiXiXiXiXiXiXiXiXiXiXiXiXiXiXiXiXiXiXiXiXiXiXiXiXiXiXiXiXiXiXiXA.=Xc.l.Q.~.+X@X3.&.] -.g d iXiXiXiXiX",
"iXiXiXiXiXiXiXXX%XtX:Xq.&XtXrX3X_.l.c.S.A.iXiXiXiXiXiXiXiXiXiXiXiXiXiXiXiXiXiXiXiXiXiXiXiXiXiXiXiXiXiXiXiXiXiXiXiXiXiXiXiXoXoX X.X|.;X0XqX&X$X#X>X:Xh iXiXiXiXiX",
"iXiXiXiXiXiXiX7XtXrXrXtXyXtXeX3X;X-X7XwX8XiXiXiXiXiXiXiXiXiXiXiXiXiXiXiXiXiXiXiXiXiXiXiXiXiXiXiXiXiXiXiXiXiXiXiXiXiXiXrXrXeXrXrXrXeXrXrXrXtXtXtXyX:XOXiXiXiXiXiX",
"iXiXiXiXiXiXiXrXrXrXrXrXrXrXtXrXrXrXrXrXrXrXiXiXiXiXiXiXiXiXiXiXiXiXiXiXiXiXiXiXiXiXiXiXiXiXiXiXiXiXiXiXiXiXiXiXiXiX9XrXrXrXrXrXrXrXrXrXrXrXrXrXrXrXrXrXrXiXiXiX",
"iXiXiXiXiXiXrXrXrXrXrXrXrXrXrXrXrXrXrXrXrXrXrXrXiXiXiXiXiXiXiXiXiXiXiXiXiXiXiXiXiXiXiXiXiXiXiXiXiXiXiXiXiXiXiXiXiXiXqXrXrXrXrXrXrXrXrXrXrXwXrXrXrXrXrXrXrXiXiXiX",
"iXiXiXiXrXrXrXrXrXrXrXrXrXrXrXrXrXrXrXrXrXrXrXrXiXiXiXiXiXiXiXiXiXiXiXiXiXiXiXiXiXiXiXiXiXiXiXiXiXiXiXiXiXiXiXiXiXqX8XrXrXrXrXrXrXrXrXwXqXwXrXrXrXrXrXrXrXrXiXiX",
"iXiXrXrXrXrXrXeXrXrXrXrXrXrXrXrXrXrXrXrXrXrXrXrX9XiXiXiXiXiXiXiXiXiXiXiXiXiXiXiXiXiXiXiXiXiXiXiXiXiXiXiXiXiXiXiXrXrX8XqXrXrXrXrXrXrXrXrXrXrXrXrXrXrXrXrXrXwXiXiX",
"iX6XrXrXrXrXrXrXqXqXeXrXrXrXrXrXrXrXrXrX8XeXeX9X9XiXiXiXiXiXiXiXiXiXiXiXiXiXiXiXiXiXiXiXiXiXiXiXiXiXiXiXiXiXiXiXrXrXrXwXeXrXrXeXrXeXrXrXrXrXrXrXrXrXrXrXwXwXwXiX",
"iX4XeXrXrXrXrXrXrXrXrXrXrXrXrXeXeXrXrX8X9X9X5X9XrXeXiXiXiXiXiXiXiXiXiXiXiXiXiXiXiXiXiXiXiXiXiXiXiXiXiXiXiXiXiXiXeXrXrXrXrXrXrXqXqXeXrXrXrXrXrXrXeXrXrXqX6XeXwXiX",
"iXiX5XqXeXrXrXrXrXrXrXrXrXrXrXrX9X8X5XqXrXrXrXrXrX5XiXiXiXiXiXiXiXiXiXiXiXiXiXiXiXiXiXiXiXiXiXiXiXiXiXiXiXiXiXiX5XeXrXrXrXrXrXrXrXrXrXrXrXrXrXrXeXqX9XqXqXqX8XiX",
"iXiXiX<X1XqXwXrXrXrXrXrXrXrXrXrXrXeXrXrXrXrXeXqX5XiXiXiXiXiXiXiXiXiXiXiXiXiXiXiXiXiXiXiXiXiXiXiXiXiXiXiXiXiXiXiXiX2X9XwXqXwXeXeXrXrXrXrXrXrXrXrXrXrXrXrX9X2X1XiX",
"iXiXiXiX<X<X2XeXrXrXrXrXrXrXrXrXrXrXrXrXrXrX4XiXiXiXiXiXiXiXiXiXiXiXiXiXiXiXiXiXiXiXiXiXiXiXiXiXiXiXiXiXiXiXiXiXiXiX9XrX8X6X9XqXeXrXrXrXrXeXrXrXrXeXeXqXiXiXiXiX",
"iXiXiXiXiXiX<X9XrXrXrXeXrXrXwXrXrXrX9XrXeX5X<XiXiXiXiXiXiXiXiXiXiXiXiXiXiXiXiXiXiXiXiXiXiXiXiXiXiXiXiXiXiXiXiXiXiXiX2X9X8X4XqX8X5XeXrXrX8XeXrXrXwX5X4XiXiXiXiXiX",
"iXiXiXiXiXiXiX1X6X9X5X2X4X2X1X5X8X4X2X5X2X<XiXiXiXiXiXiXiXiXiXiXiXiXiXiXiXiXiXiXiXiXiXiXiXiXiXiXiXiXiXiXiXiXiXiXiXiXiXiXiXiX1X1X,X1X4X1X1XqXwX8X2X<XiXiXiXiXiXiX",
"iXiXiXiXiXiXiXiXiXiXiXiX,X,XiXiX<XiXiXiXiXiXiXiXiXiXiXiXiXiXiXiXiXiXiXiXiXiXiXiXiXiXiXiXiXiXiXiXiXiXiXiXiXiXiXiXiXiXiXiXiXiXiXiXiXiX,XiXiXiXiXiXiXiXiXiXiXiXiXiX",
"iXiXiXiXiXiXiXiXiXiXiXiXiXiXiXiXiXiXiXiXiXiXiXiXiXiXiXiXiXiXiXiXiXiXiXiXiXiXiXiXiXiXiXiXiXiXiXiXiXiXiXiXiXiXiXiXiXiXiXiXiXiXiXiXiXiXiXiXiXiXiXiXiXiXiXiXiXiXiXiX",
"iXiXiXiXiXiXiXiXiXiXiXiXiXiXiXiXiXiXiXiXiXiXiXiXiXiXiXiXiXiXiXiXiXiXiXiXiXiXiXiXiXiXiXiXiXiXiXiXiXiXiXiXiXiXiXiXiXiXiXiXiXiXiXiXiXiXiXiXiXiXiXiXiXiXiXiXiXiXiXiX",
"iXiXiXiXiXiXiXiXiXiXiXiXiXiXiXiXiXiXiXiXiXiXiXiXiXiXiXiXiXiXiXiXiXiXiXiXiXiXiXiXiXiXiXiXiXiXiXiXiXiXiXiXiXiXiXiXiXiXiXiXiXiXiXiXiXiXiXiXiXiXiXiXiXiXiXiXiXiXiXiX",
"iXiXiXiXiXiXiXiXiXiXiXiXiXiXiXiXiXiXiXiXiXiXiXiXiXiXiXiXiXiXiXiXiXiXiXiXiXiXiXiXiXiXiXiXiXiXiXiXiXiXiXiXiXiXiXiXiXiXiXiXiXiXiXiXiXiXiXiXiXiXiXiXiXiXiXiXiXiXiXiX",
"iXiXiXiXiXiXiXiXiXiXiXiXiXiXiXiXiXiXiXiXiXiXiXiXiXiXiXiXiXiXiXiXiXiXiXiXiXiXiXiXiXiXiXiXiXiXiXiXiXiXiXiXiXiXiXiXiXiXiXiXiXiXiXiXiXiXiXiXiXiXiXiXiXiXiXiXiXiXiXiX",
"iXiXiXiXiXiXiXiXiXiXiXiXiXiXiXiXiXiXiXiXiXiXiXiXiXiXiXiXiXiXiXiXiXiXiXiXiXiXiXiXiXiXiXiXiXiXiXiXiXiXiXiXiXiXiXiXiXiXiXiXiXiXiXiXiXiXiXiXiXiXiXiXiXiXiXiXiXiXiXiX",
"iXiXiXiXiXiXiXiXiXiXiXiXiXiXiXiXiXiXiXiXiXiXiXiXiXiXiXiXiXiXiXiXiXiXiXiXiXiXiXiXiXiXiXiXiXiXiXiXiXiXiXiXiXiXiXiXiXiXiXiXiXiXiXiXiXiXiXiXiXiXiXiXiXiXiXiXiXiXiXiX",
"iXiXiXiXiXiXiXiXiXiXiXiXiXiXiXiXiXiXiXiXiXiXiXiXiXiXiXiXiXiXiXiXiXiXiXiXiXiXiXiXiXiXiXiXiXiXiXiXiXiXiXiXiXiXiXiXiXiXiXiXiXiXiXiXiXiXiXiXiXiXiXiXiXiXiXiXiXiXiXiX",
"iXiXiXiXiXiXiXiXiXiXiXiXiXiXiXiXiXiXiXiXiXiXiXiXiXiXiXiXiXiXiXiXiXiXiXiXiXiXiXiXiXiXiXiXiXiXiXiXiXiXiXiXiXiXiXiXiXiXiXiXiXiXiXiXiXiXiXiXiXiXiXiXiXiXiXiXiXiXiXiX",
"iXiXiXiXiXiXiXiXiXiXiXiXiXiXiXiXiXiXiXiXiXiXiXiXiXiXiXiXiXiXiXiXiXiXiXiXiXiXiXiXiXiXiXiXiXiXiXiXiXiXiXiXiXiXiXiXiXiXiXiXiXiXiXiXiXiXiXiXiXiXiXiXiXiXiXiXiXiXiXiX",
"iXiXiXiXiXiXiXiXiXiXiXiXiXiXiXiXiXiXiXiXiXiXiXiXiXiXiXiXiXiXiXiXiXiXiXiXiXiXiXiXiXiXiXiXiXiXiXiXiXiXiXiXiXiXiXiXiXiXiXiXiXiXiXiXiXiXiXiXiXiXiXiXiXiXiXiXiXiXiXiX",
"iXiXiXiXiXiXiXiXiXiXiXiXiXiXiXiXiXiXiXiXiXiXiXiXiXiXiXiXiXiXiXiXiXiXiXiXiXiXiXiXiXiXiXiXiXiXiXiXiXiXiXiXiXiXiXiXiXiXiXiXiXiXiXiXiXiXiXiXiXiXiXiXiXiXiXiXiXiXiXiX",
"iXiXiXiXiXiXiXiXiXiXiXiXiXiXiXiXiXiXiXiXiXiXiXiXiXiXiXiXiXiXiXiXiXiXiXiXiXiXiXiXiXiXiXiXiXiXiXiXiXiXiXiXiXiXiXiXiXiXiXiXiXiXiXiXiXiXiXiXiXiXiXiXiXiXiXiXiXiXiXiX",
"iXiXiXiXiXiXiXiXiXiXiXiXiXiXiXiXiXiXiXiXiXiXiXiXiXiXiXiXiXiXiXiXiXiXiXiXiXiXiXiXiXiXiXiXiXiXiXiXiXiXiXiXiXiXiXiXiXiXiXiXiXiXiXiXiXiXiXiXiXiXiXiXiXiXiXiXiXiXiXiX",
"iXiXiXiXiXiXiXiXiXiXiXiXiXiXiXiXiXiXiXiXiXiXiXiXiXiXiXiXiXiXiXiXiXiXiXiXiXiXiXiXiXiXiXiXiXiXiXiXiXiXiXiXiXiXiXiXiXiXiXiXiXiXiXiXiXiXiXiXiXiXiXiXiXiXiXiXiXiXiXiX",
"iXiXiXiXiXiXiXiXiXiXiXiXiXiXiXiXiXiXiXiXiXiXiXiXiXiXiXiXiXiXiXiXiXiXiXiXiXiXiXiXiXiXiXiXiXiXiXiXiXiXiXiXiXiXiXiXiXiXiXiXiXiXiXiXiXiXiXiXiXiXiXiXiXiXiXiXiXiXiXiX"
};
