/* XPM */
static char *result[] = {
/* columns rows colors chars-per-pixel */
"80 80 214 2 ",
"   c #3F2D57",
".  c #521D4D",
"X  c #4E1949",
"o  c #5B285A",
"O  c #44345C",
"+  c #51294F",
"@  c #68394D",
"#  c #64335D",
"$  c #642A58",
"%  c #5F2761",
"&  c #4A3A62",
"*  c #622965",
"=  c #682D6F",
"-  c #622866",
";  c #683A64",
":  c #733968",
">  c #6A2E72",
",  c #6E3177",
"<  c #72347D",
"1  c #702F61",
"2  c #39496B",
"3  c #325776",
"4  c #2F5E7B",
"5  c #73464C",
"6  c #774B4B",
"7  c #7E534C",
"8  c #704454",
"9  c #56567A",
"0  c #6D436B",
"q  c #74496C",
"w  c #754C72",
"e  c #7A4473",
"r  c #7D567A",
"t  c #7D5679",
"y  c #7F586A",
"u  c #863A70",
"i  c #845B4C",
"p  c #865C4B",
"a  c #885E50",
"s  c #8B634D",
"d  c #936D4E",
"f  c #9A744D",
"g  c #9C7359",
"h  c #93665D",
"j  c #A17B53",
"k  c #8A5867",
"l  c #864A79",
"z  c #85597C",
"x  c #8F4B76",
"c  c #956664",
"v  c #9B7966",
"b  c #9B7B7A",
"n  c #8B6674",
"m  c #A07E63",
"M  c #A8854E",
"N  c #AD8B53",
"B  c #A78356",
"V  c #B49352",
"C  c #BB9C51",
"Z  c #B69755",
"A  c #B89751",
"S  c #BEA151",
"D  c #CAAE53",
"F  c #C4A652",
"G  c #CDB252",
"H  c #D5BB53",
"J  c #D6BD53",
"K  c #C1A44F",
"L  c #DBC354",
"P  c #DFC855",
"I  c #E3CC55",
"U  c #EAD557",
"Y  c #EED957",
"T  c #EFDA58",
"R  c #E7D156",
"E  c #F0DD57",
"W  c #F1DD58",
"Q  c #F4E159",
"!  c #763782",
"~  c #7B3A89",
"^  c #6B3B82",
"/  c #2B6882",
"(  c #25768C",
")  c #31758F",
"_  c #415A84",
"`  c #71458F",
"'  c #7A6181",
"]  c #813D8E",
"[  c #874987",
"{  c #8A5B82",
"}  c #995485",
"|  c #8A459C",
" . c #894598",
".. c #8A5097",
"X. c #A95A8C",
"o. c #B2588E",
"O. c #BC5D94",
"+. c #B35E91",
"@. c #A84F86",
"#. c #866283",
"$. c #896586",
"%. c #8E6D8C",
"&. c #8C618F",
"*. c #9A668B",
"=. c #94748B",
"-. c #9C6C94",
";. c #957592",
":. c #9A7B97",
">. c #9A7C98",
",. c #A86793",
"<. c #B46898",
"1. c #A57699",
"2. c #AF6B98",
"3. c #8C48A2",
"4. c #914BA6",
"5. c #934CAA",
"6. c #994EB1",
"7. c #9A51B4",
"8. c #9E53BA",
"9. c #A155BC",
"0. c #A358BF",
"q. c #BB79A6",
"w. c #C15F97",
"e. c #CA649C",
"r. c #C46199",
"t. c #D76BA4",
"y. c #C17EAA",
"u. c #E272AC",
"i. c #EB77B2",
"p. c #F27BB6",
"a. c #F67FB9",
"s. c #F97FBB",
"d. c #A65AC4",
"f. c #AB5ECC",
"g. c #A65AC4",
"h. c #AE5FD0",
"j. c #AE60CE",
"k. c #AF61D1",
"l. c #B062D2",
"z. c #1C8C9C",
"x. c #1D8697",
"c. c #18929F",
"v. c #238597",
"b. c #318195",
"n. c #1996A3",
"m. c #13A4AD",
"M. c #10ACB3",
"N. c #0EB5B9",
"B. c #0DB9BC",
"V. c #10B0B6",
"C. c #0BBFC1",
"Z. c #0AC5C5",
"A. c #09C8C7",
"S. c #9E829C",
"D. c #A1849E",
"F. c #A3868C",
"G. c #A58BA3",
"H. c #A98EA6",
"J. c #AA89A4",
"K. c #AC94AA",
"L. c #A792A8",
"P. c #B19AAE",
"I. c #B295AD",
"U. c #B49DB2",
"Y. c #BA9FB5",
"T. c #B9A3B6",
"R. c #BBA6B9",
"E. c #BDAABC",
"W. c #B8A3B5",
"Q. c #ACA3B5",
"!. c #8F8FA5",
"~. c #CC88B4",
"^. c #FC83BE",
"/. c #C1ADBF",
"(. c #C3B1BE",
"). c #BFB3C2",
"_. c #DD97C1",
"`. c #FF85C0",
"'. c #FC8FC4",
"]. c #FC92C6",
"[. c #C5B4C3",
"{. c #CBBCCA",
"}. c #C8B7C7",
"|. c #C1AFC0",
" X c #EBA4CD",
".X c #E6A0CA",
"XX c #F3ABD4",
"oX c #F7AFD8",
"OX c #FAABD4",
"+X c #F9B1DA",
"@X c #F3A6D0",
"#X c #D0C3CF",
"$X c #D2C5D1",
"%X c #D5CAD5",
"&X c #D9CED9",
"*X c #DDD3DD",
"=X c #CEC0CD",
"-X c #E0D7DF",
";X c #FDC3DF",
":X c #FDCAE3",
">X c #E4DCE4",
",X c #E3D9E2",
"<X c #FED6EA",
"1X c #EAE4EA",
"2X c #EEE9EE",
"3X c #E7E1E7",
"4X c #F1EDF1",
"5X c #FEEAF4",
"6X c #F5F2F5",
"7X c #F9F6F9",
"8X c #FFFFFF",
"9X c #F8F5F8",
"0X c #F0EBEF",
"qX c None",
/* pixels */
"qXqXqXqXqXqXqXqXqXqXqXqXqXqXqXqXqXqXqXqXqXqXqXqXqXqXqXqXqXqXqXqXqXqXqXqXqXqXqXqXqXqXqXqXqXqXqXqXqXqXqXqXqXqXqXqXqXqXqX. X qXqXqXqXqXqXqXqXqXqXqXqXqXqXqXqXqXqXqX",
"qXqXqXqXqXqXqXqXqXqXqXqXqXqXqXqXqXqXqXqXqXqXqXqXqXqXqXqXqXqXqXqXqXqXqXqXqXqXqXqXqXqXqXqXqXqXqXqXqXqXqXqXqXqXqXqXqXqXs 6 qXqXqXqXqXqXqXqXqXqXqXqXqXqXqXqXqXqXqXqX",
"qXqXqXqXqXqXqXqXqXqXqXqXqXqXqXqXqXqXqXqXqXqXqXqXqXqXqXqXqXqXqXqXqXqXqXqXqXqXqXqXqXqXqXqXqXqXqXqXqXqXqXqXqXqXqXqXqXf L 7 qXqXqXqXqXqXqXqXqXqXqXqXqXqXqXqXqXqXqXqX",
"qXqXqXqXqXqXqXqXqXqXqXqXqXqXqXqXqXqXqXqXqXqXqXqXqXqXqXqXqXqXqXqXqXqXqXqXqXqXqXqXqXqXqXqXqXqXqXqXqXqXqXqXqXqXqXqX7 P U a qXqXqXqXqXqXqXqXqXqXqXqXqXqXqXqXqXqXqXqX",
"qXqXqXqXqXqXqXqXqXqXqXqXqXqXqXqXqXqXqXqXqXqXqXqXqXqXqXqXqXqXqXqXqXqXqXqXqXqXqXqXqXqXqXqXqXqXqXqXqXqXqXqXqXqXqXqXV W W Z qXqXqXqXqXqXqXqXqXqXqXqXqXqXqXqXqXqXqXqX",
"qXqXqXqXqXqXqXqXqXqXqXqXqXqXqXqXqXqXqXqXqXqXqXqXqXqXqXqXqXqXqXqXqXqXqXqXqXqXqXqXqXqXqXqXqXqXqXqXqXw $.qXqXqXqX@ H W W Y M @ qXqXqXqXqXqXqXqXqXqXqXqXqXqXqXqXqXqX",
"qXqXqXqXqXqXqXqXqXqXqXqXqXqXqXqXqXqXqXqXqXqXqXqXqXqXqXqXqXqXqXqXqXqXqXqXqXqXqXqXqXqXqXqXqXqXqXqXqX{ -X;.qXqXqX5 L W W W T F d @ qXqXqXqXqXqXqXqXqXqXqXqXqXqXqXqX",
"qXqXqXqXqXqXqXqXqXqXqXqXqXqXqXqXqXqXqXqXqXqXqXqXqXqXqXqXqXqXqXqXqXqXqXqXqXqXqXqXqXqXqXqXqXqXqXqXqXqXE.G.q qXqX5 L W W W W W Y L N 6 = | | ! = qXqXqXqXqXqXqXqXqX",
"qXqXqXqXqXqXqXqXqXqXqXqXqXqXqXqXqXqXqXqXqXqXqXqXqXqXqXqXqXqXqXqXqXqXqXqXqXqXqXqXqXqXqXqXqXqXqXqXqXqXr #X>X$.qXqXS Y E W W E E W E R N  .j.k.0.` * qXqXqXqXqXqXqX",
"qXqXqXqXqXqXqXqXqXqXqXqXqXqXqXqXqXqXqXqXqXqXqXqXqXqXqXqXqXqXqXqXqXqXqXqXqXqXqXqXqXqXqXqXqXqXqXqXqXqX%.9X2X>.; # k c g V L E W W Q E T N 4.l.l.k.7.= qXqXqXqXqXqX",
"qXqXqXqXqXqXqXqXqXqXqXqXqXqXqXqXqXqXqXqXqXqXqXqXqXqXqXqXqXqXqXqXqXqXqXqXqXqXqXqXqXqXqXqXqXqXqXqXqXqX; ;.S.$X{.l y.*.k @ p f M F P E Q P k 8.d.f.l.7.- qXqXqXqXqX",
"qXqXqXqXqXqXqXqXqXqXqXqXqXqXqXqXqXqXqXqXqXqXqXqXqXqXqXqXqXqXqXqXqXqXqXqXqXqXqXqXqXqXqXqXqXqXqXqXqXqXqX>.7X>X;.# j D I R R L D V f f N v n -.&.5.l.l. .qXqXqXqXqX",
"qXqXqXqXqXqXqXqXqXqXqXqXqXqXqXqXqXqXqXqXqXqXqXqXqXqXqXqXqXqXqXqXqXqXqXqXqXqXqXqXqXqXqXqXqXqXqXqXqXqXl { H.>.y F W W W W E E W W H n E.2X8X8X>X..l.l.9.* qXqXqXqX",
"qXqXqXqXqXqXqXqXqXqXqXqXqXqXqXqXqXqXqXqXqXqXqXqXqXqXqXqXqXqXqXqXqXqXqXqXqXqXqXqXqXqXqXqXqXqXqXqXqX: _.2.U.|.V W W W W W E E E Y B &X1X{.{.6X7X{ 6.l.j., qXqXqXqX",
"qXqXqXqXqXqXqXqXqXqXqXqXqXqXqXqXqXqXqXqXqXqXqXqXqXqXqXqXqXqXqXqXqXqXqXqXqXqXqXqXqXqXqXqXqXqXqXqXqXq.+X_.:.b L W I J I W W W W K P.|.,.q.*.{.8X1.u  .g.! qXqXqXqX",
"qXqXqXqXqXqXqXqXqXqXqXqXqXqXqXqXqXqXqXqXqXqXqXqXqXqXqXqXqXqXqXqXqXqXqXqXqXqXqXqXqXqXqXqXqXqXqXqXz  X+X+X} 6 R N k k b m A S N F.R.2.XX+Xy.{.8XJ.u.O.] = qXqXqXqX",
"qXqXqXqXqXqXqXqXqXqXqXqXqXqXqXqXqXqXqXqXqXqXqXqXqXqXqXqXqXqXqXqXqXqXqXqXqXqXqX. qXqXqXqXqXqXqX1 ~.+X+X@X[ 6 A t >.*X7X>X}./.$X7XU.2.+X+X2.*X7X1.p.`.O.$ qXqXqXqX",
"qXqXqXqXqXqXqXqXqXqXqXqXqXqXqXqXqXqXqXqXqXqXqXqXqXqXqXqXqXqXqXqXqXqXqXqXqXqXqX. qXqXqXqXqXqXqX*.OXoX+Xq.U.n 6 G.4X8X8X8X8X8X8X8X7XK.q..X1.8X*Xx s.^.^.o.qXqXqXqX",
"qXqXqXqXqXqXqXqXqXqXqXqXqXqXqXqXqXqXqXqXqXqXqXqXqXqXqXqXqXqXqXqXqXqXqXqXqXqX: z qXqXqXqXqXqXl  XoX+XXX1.0X-Xq $X8X8X8X8X8X8X8X8X8X7X1.{ &X8XG.%.t.`.^.a.x qXqXqX",
"qXqXqXqXqXqXqXqXqXqXqXqXqXqXqXqXqXqXqXqXqXqXqXqXqX. qXqXqXqXqXqXqXqXqXqXqXqXl ~.: qXqXqXqXl _.+X+X X,.H.8X8X,X>X8X8X8X8X8X8X8X8X8X8X1X*X8XW.E.*X+.^.s.`.e.qXqXqX",
"qXqXqXqXqXqXqXqXqXqXqXqXqXqXqXqXqXqXqXqXqXqXqX2 O qXqXqXqXqXqXqXqXqXqXqXqXqXl @X~.} e l 2. X+XXXy.} u {.8X8X8X8X8X8X8X8X8X8X8X8X8X8X8X8XT.P.8X7X1.i.`.^.p.u qXqX",
"qXqXqXqXqXqXqXqXqXqXqXqXqXqXqXqXqXqXqXqXqXqX( c.qXqXqXqXqXqXqXqXqXqXqXqXqXqX; ~.+X+X@XXXoXoX X,.o.p.,.>X8X8X8X8X8X0X>X9X8X8X8X8X8X8X8X9X#X7X8X8X|.r.`.^.`.@.qXqX",
"qXqXqXqXqXqXqXqXqXqXqXqXqXqXqXqXqXqXqXqXqX/ Z.x.qXqXqXqXqXqXqXqXqXqXqXqXqXqXqX} XXoX+XoXoX XX.r.s.a.,.7X8X8X8X8X&XP.[.R.3X8X8X8X8X8X8X8X8X8X8X8X,XX.`.^.`.O.qXqX",
"qXqXqXqXqXqXqXqXqXqXqXqXqXqXqXqXqXqXqXqX& m.Z.n.qXqXqXqXqXqXqXqXqXqXqXqXqXqXqXqXq.oX+XoXXX,.r.^.`.t.J.8X8X8X8XU.# o q $.1X8X8X8X8X8X8X8X8X8X8X8X6X,.p.`.`.r.qXqX",
"qXqXqXqXqXqXqXqXqXqXqXqXqXqXqXqXqXqXqXqX3 B.A.N.2 qXqXqXqXqXqXqXqXqXqXqXqXqXqXqX# 2.@X+Xq.O.^.^.^.w.{.8X8X8X6XS.%X3XG.$.*X8X8X8X8X8X8X8X8X8X8X8X8XJ.u.`.`.<.qXqX",
"qXqXqXqXqXqXqXqXqXqXqXqXqXqXqXqXqXqXqXqX( A.A.Z.n.O qXqXqXqXqXqXqXqXqXqXqXqXqXqXqXqXl 2.} p.^.^.s.,.3X8X8X8X9X2X8X8X9X%X6X8X8X8X8X8X8X8X8X8X8X8X8XY.t.`.^.@.qXqX",
"qXqXqXqXqXqXqXqXqXqXqXqXqXqXqXqXqXqXqXqX( A.Z.Z.Z.z.2 qXqXqXqXqXqXqXqXqXqXqXqXqXqXqXqX. O.`.^.`.i.1.7X8X8X8X8X8X8X8X8X8X8X8X8X8X8X8X8X8X8X8X8X8X8X[.r.`.a.e   qX",
"qXqXqXqXqXqXqXqXqXqXqXqXqXqXqXqXqXqXqXqX4 Z.Z.Z.Z.Z.M.( 2 qXqXqXqXqXqXqXqXqXqXqXqXqXqX1 u.`.^.i.@.{.8X8X8X8X8X8X8X8X8X8X7X5X<X:X8X8X8X8X8X8X8X8X8X$XO.`.t.) / qX",
"qXqXqXqXqXqXqXqXqXqXqXqXqXqXqXqXqXqXqXqX2 N.Z.Z.Z.Z.Z.Z.N.n./ 2 qXqXqXqXqXqXqXqXqXqXqXu p.^.u.*.{.8X8X8X8X8X8X8X8X8X8X8X:X].'.'.5X8X8X8X8X8X8X8X8X*X+.^.} m.n.O ",
"qXqXqXqXqXqXqXqXqXqXqXqXqXqXqXqXqXqXqXqXqXv.A.A.Z.Z.Z.Z.Z.Z.Z.V.v.3 qXqXqXqXqXqXqXqXqXu a.^.+.%X8X8X8X6X8X8X8X8X8X8X8X8X:X^.s.OX8X8X8X8X8X8X8X8X8X>X<.e.) Z.N.2 ",
"qXqXqXqXqXqXqXqXqXqXqXqXqXqXqXqXqXqXqXqXqX2 z.c.) ) / ) z.M.Z.Z.Z.N.( & qXqXqXqXqXqXqXu p.a.,.2X8X8X*X%.&X8X8X8X8X8X8X8X7X;XOX<X8X8X8X8X8X8X8X8X7X3Xx ` V.Z.Z.4 ",
"qXqXqXqXqXqXqXqXqXqXqXqXqXqXqXqXqXqXqXqXqX* < 3.6.8.8.6.3.` _ c.B.A.Z.z.& qXqXqXqXqXqX1 u.^.,.6X8X8X>XK.&X8X8X8X8X8X8X8X8X8X8X8X8X8X8X8X8X8X8X8X8X>X9 M.Z.Z.Z./ ",
"qXqXqXqXqXqXqXqXqXqXqXqXqXqXqXqXqXqXqX* ] 9.l.l.l.l.l.l.l.l.g.` _ m.Z.Z.v.qXqXqXqXqXqXqXO.`.X.3X8X8X8X8X8X8X7X3X8X8X8X8X8X8X8X8X8X8X8X8X8X8X8X8X8X>X) A.Z.Z.Z./ ",
"qXqXqXqXqXqXqXqXqXqXqXqXqXqXqXqXqXqX, 7.l.l.l.l.l.l.l.l.l.l.l.l.7.` x.Z.B.3 qXqXqXqXqXqXu a.e.T.8X8X8X8X8X8X[./.8X8X8X8X8X8X8X8X8X%X%X8X8X8X8X8X8X,Xb.A.Z.Z.B.3 ",
"qXqXqXqXqXqXqXqXqXqXqXqXqXqXqXqXqX! g.l.l.l.l.l.l.l.l.l.l.h.j.f.j.f.` v.A.( qXqXqXw #.=.$.w.a.X.R.6X8X7X*XR.L.6X8X8X8X8X8X8X4X%XH.H.1X8X8X8X8X8X8X-Xb.Z.Z.Z.M.2 ",
"qXqXqXqXqXqXqXqXqXqXqXqXqXqXqXqX< g.l.l.l.l.l.l.l.l.d.| l x k k z [ 4.< z.( 0 G.{.>X6X8X6X1.t.a.O.-.T.U.w $.T.[.}.}.[.E.U.G.G.P.&X8X8X8X8X8X8X8X8X%Xb.A.Z.A.v.qX",
"qXqXqXqXqXqXqXqXqXqXqXqXqXqXqX> 0.l.l.l.k.l.l.l.8.[ h C J R I K j a 6 $ & L.3X8X8X8X8X8X8X3X-.t.^.i.e.<.e.e.r.r.w.o.$.{.%X>X9X8X8X8X8X8X8X8X8X8X8X}.z.A.Z.V.3 qX",
"qXqXqXqXqXqXqXqXqXqXqXqXqXqXqX4.l.l.l.l.l.l.f.| h G Y Q W D k [ ] = . w &X8X8X8X8X8X8X8X8X8X3X-.r.^.^.^.^.^.`.`.`.t.T.8X8X8X8X8X8X8X8X8X8X8X8X8X8X[.c.A.Z.4 qXqX",
"qXqXqXqXqXqXqXqXqXqXqXqXqXqX< j.l.l.l.l.k.f.[ N U Q W W C l 9. .* qX#.3X8X8X8X8X8X8X8X8X8X8X8X6XK.o.a.^.^.^.^.^.^.w.{.8X8X8X8X8X8X8X8X8X8X8X8X8X8XQ.n.N.4 qXqXqX",
"qXqXqXqXqXqXqXqXqXqXqXqXqXqX4.l.j.l.l.l.f.[ V T W W W H l f.3.qXqXt >X8X8X8X8X8X8X8X8X8X8X8X8X8X8XT.o.^.^.^.^.^.s.} *X8X8X8X8X8X8X8X8X8X8X8X8X8X8X!.z.3 qXqXqXqX",
"qXqXqXqXqXqX* X qXqXqXqXqX= g.l.l.l.j.l.| N T W W W W g 8.g.= qXqX}.8X8X8X8X8X8X8X8X8X8X8X8X8X8X8X8XH.t.^.^.^.`.w.I.7X8X8X8X8X8X8X8X8X8X8X8X8X8X7X'   qXqXqXqXqX",
"qXqXqXo ~ 4.< . qXqXqXqXqX~ k.l.l.l.l.8.h Y Q T W W J [ l.| qXqX;.7X8X8X8X8X8X8X8X8X8X8X8X8X8X8X8X8X*X+.`.^.^.O.1.4X8X8X8X8X8X8X8X8X8X8X8X8X8X8X3Xw qXqXqXqXqXqX",
"qXqX* 4.k.| qXqXqXqXqXqXqX| l.l.l.l.j.[ G Q T T T W A 4.l.! qXqX}.8X8X8X8X8X8X8X8X8X8X8X8X8X8X8X8X8X}.O.p.t.X.P.7X8X8X8X8X8X8X8X8X8X8X8X8X8X8X8X#XqXqXqXqXqXqXqX",
"qX% 5.l.g.> qXqXqXqXqXqXqX5.l.l.l.l.8.g W T W W T W g 0.g.> qXz 2X8X8X8X8X8X8X8X8X8X8X8X8X8X8X8X{.L.: } *.K.*X8X8X8X8X8X8X8X8X8X8X8X8X8X8X8X8X8XG.qXqXqXqXqXqXqX",
"qX~ l.l.8.o qXqXqXqXqXqX* 9.l.l.k.k.[ G Q W W T W U k f.8.% qX:.8X8X8X8X8X8X8X8X8X8X8X8X8X8X8X7X$X}.%X>X9X8X8X8X8X8X8X8X8X8X8X8X8X8X8X8X8X8X8X4XS.G.qXqXqXqXqXqX",
"* 8.l.l.8.* qXqXqXqXqXqX< j.l.l.l.d.c U W T W W W I z l.5.qXqXK.8X8X8X8X8X8X8X8X8X8X8X8X8X8X8X8X8X8X8X8X8X8X8X8X8X8X8X8X8X8X8X8X8X8X8X8X8X8X8X}.E.8XW.qXqXqXqXqX",
", j.l.l.f.< qXqXqXqXqXqX| l.l.l.l.4.V W T W T W W L [ l.3.qXqXU.8X8X8X8X8X8X8X8X8X8X8X8X8X8X8X8X7X8X8X8X8X8X8X8X8X8X8X8X8X8X8X8X8X8X8X8X8X8X7XG.3X8X8XK.qXqXqXqX",
"! j.l.j.l.7.- qXqXqXqX! j.l.l.l.j.[ L W W W T W Q J [ l.] qXqXU.8X8X8X8X8X8X8X8X8X8X8X8X8X8X8X8X{.%X8X8X8X8X8X8X8X8X8X8X8X8X8X8X8X8X8X8X8X8X$XU.8X8X8X6X=.qXqXqX",
"~ j.l.l.l.l.8.` , ,  .0.l.l.l.l.d.c Y W W E W T W G  .l.< qXqXH.8X8X8X8X8X8X8X8X8X8X8X8X8X8X8X8X%XR.8X8X8X8X8X8X8X8X8X8X8X8X8X8X8X8X8X8X8X6XG.3X8X8X8X8X%X0 qXqX",
"< j.l.l.j.l.l.l.f.f.l.l.l.l.l.l.5.N W Y E E W T W F 3.9.- qXqXD.8X8X8X8X8X8X8X8X8X8X8X8X8X8X8X8X>XP.8X8X8X8X8X8X8X8X8X8X8X8X8X8X8X8X8X8X8X[.R.8X8X8X8X8X8XS.qXqX",
"= g.l.l.l.l.j.l.l.l.l.l.l.l.l.l.[ H W W E E W W W A 5.| qXqXqX=.7X8X8X8X8X8X8X8X8X8X8X8X8X8X8X8X1XK.8X8X8X8X8X8X8X8X8X8X8X8X8X8X8X8X8X8X>XG.4X8X8X8X8X8X8X{.qXqX",
"qX5.l.l.l.l.l.l.l.l.l.l.l.l.l.g.c U W W E E T W W N 5., qXqXqXw >X8X8X8X8X8X8X8X8X8X8X8X8X8X8X8X3XK.8X8X8X8X8X8X8X8X8X8X8X8X8X8X8X8X8X7X;.}.8X8X8X8X8X8X8X2Xt qX",
"qX! j.l.l.l.l.l.l.l.l.l.l.l.l.4.V W W T W W W W W c ] qXqXqXqXqX|.8X8X8X8X8X8X8X8X8X8X8X8X8X8X8X>XU.8X8X8X8X8X8X8X8X8X8X8X8X8X8X8X8X8XK.+ [.8X8X8X8X8X8X8X8X:.qX",
"qXqX5.l.j.l.l.l.l.l.k.l.l.l.f.x L W W W T T W W I q - qXqXqXqXqX=.6X8X8X8X8X8X8X8X8X8X8X8X8X8X8X{.E.8X8X8X8X8X3X8X8X8X8X8X8X8X8X8X8XE.qXqXE.8X8X8X8X8X8X8X8XH.qX",
"qXqX> g.l.l.l.l.k.l.l.k.l.l.7.j W W W T W W W W K . qXqXqXqXqXqXqX$X8X8X8X8X8X8X8X8X8X8X8X8X8X8XW.%X8X8X8X8X7XL.6X8X8X8X8X8X8X8X8X6X#.qXqX$X8X8X8X8X8X8X8X8XP.qX",
"qXqXqX< g.l.l.l.l.l.l.l.l.h.l H W T W W W T W U p qXqXqXqXqXqXqXqXG.8X8X8X8X8X8X8X8X8X8X8X8X8X6XG.6X8X8X8X8X4XH.7X8X8X8X8X8X8X8X8X$XqXqXz 0X8X8X8X8X8X8X8X8XK.qX",
"qXqXqXqX< g.l.l.k.l.l.l.l.4.B W W T W W W T W D @ qXqXqXqXqXqXqXqXw 2X8X8X8X8X8X8X8X8X8X8X8X8X}.R.8X8X8X8X8X1XK.8X8X8X8X8X8X8X8X8XG.qXqXR.8X8X8X8X8X8X8X8X8XG.qX",
"qXqXqXqXqX> 5.f.l.l.k.l.8.k I W W T W T W W I s qXqXqXqXqXqXqXqXw { *X8X8X8X8X8X8X8X8X8X8X8X0XG.2X8X8X8X8X8X*XW.8X8X8X8X8X8X8X8X0Xz qXr 2X8X8X8X8X8X8X8X8X9X$.qX",
"qXqXqXqXqXqXo ~ 7.f.l.d.k J W W W W T W W T j qXqXqXqXqX; 0 #.U.3XE.$X8X8X8X8X8X8X8X8X8X8X8XP.}.8X8X8X8X8X8X[.}.8X8X8X8X8X8X8X8X&XqXqXq 0X8X8X8X8X8X8X8X8X*X0 qX",
"qXqXqXqXqXqXqXqX% , ~ k H W W W T W W W W V qXqXqXqXqX{ $X>X6X8X8XW.&X8X8X8X8X8X8X8X8X8X8XU.S.4X7X8X8X7X9X6XH.>X8X8X8X8X8X8X8X8XR.qXqXi (.8X8X8X8X8X8X8X8XU.qXqX",
"qXqXqXqX. qXqXqXqX5 M R E W T W W W W T N @ qXqXqXqXr *X8X8X8X8X6XG.4X8X8X8X8X8X8X8X8X6XP.# 0 z %.;.:.;.%.t %.7X8X8X8X8X8X8X8X8XG.qXqXC b 4X8X8X8X8X8X8X2X' qXqX",
"qXqXqXqXqX. 7 N D I E W E E T W W W L f qXqXqXqXqXr *X8X8X8X8X8XT./.8X8X8X8X8X8X8X7X%X=.qXqXqXqXqXqXqXqXqXqX/.8X8X8X8X8X8X8X8X7X=.qXqXH C W.8X8X8X8X8X8XI.qXqXqX",
"qXqXqXqXqXqXqXd F I E W W W W T L N 6 qXqXqXqXqX%.>X8X8X8X8X2XG.P.7X8X8X8X8X8X8X1X;.; qXqXqXqXqXqXqXqXqXqX#.4X8X8X8X8X8X8X8X8X6X#.qXqXG Y v *X8X8X8X8X}.; qXqXqX",
"qXqXqXqXqXqXqXqXqXi f V C A N d 6 qXqXqXqXqXw U.4X8X8X8X8X8X*XS.8X8X8X8X8X8X8X8X$XqXqXqXqXqXqXqXqXqXqXqXqX|.8X8X8X8X8X8X8X8X8X0Xr qXqXS Q H b 3X8X8X%Xw qXqXqXqX",
"qXqXqXqXqXqXqXqXqXqXqXqXqXqXqXqXqXqXqXqX; G.>X8X8X8X8X8X8X8X6XG.6X8X8X8X8X8X8X8X$XqXqXqXqXqXqXqXqXqXqXqXqX[.8X8X8X8X8X8X8X8X8X0Xr qXqXM T W D b -X}.w qXqXqXqXqX",
"qXqXqXqXqXqXqXqXqXqXqXqXqXqXqXqXqXqXqXqXT.8X8X8X8X8X8X8X8X8X8XP.-X8X8X8X8X8X8X8X>X0 qXqXqXqXqXqXqXqXqXqXqX>.8X8X8X8X8X8X8X8X8X6X#.qXqXi R Q W Z 8 ; qXqXqXqXqXqX",
"qXqXqXqXqXqXqXqXqXqXqXqXqXqXqXqXqXqXqXq 0X8X8X8X8X8X8X8X8X8X8X}.[.8X8X8X8X8X8X8X6X$.qXqXqXqXqXqXqXqXqXqXqXw >X8X8X8X8X8X8X8X8X7X=.qXqXqXZ S f 6 qXqXqXqXqXqXqXqX",
"qXqXqXqXqXqXqXqXqXqXqXqXqXqXqXqXqXqXqX7 R.8X8X8X8X8X8X8X8X8X8X3XL.8X8X8X8X8X8X8X8XH.qXqXqXqXqXqXqXqXqXqXqXqXE.8X8X8X8X8X8X8X8X8XG.qXqXqX$ qXqXqXqXqXqXqXqXqXqXqX",
"qXqXqXqXqXqXqXqXqXqXqXqXqXqXqXqXqXqXqXC m $X8X8X8X8X8X8X8X8X8X7XH.2X8X8X8X8X8X8X8X#XqXqXqXqXqXqXqXqXqXqXqXqX;.7X8X8X8X8X8X8X8X8XR.qXqXqXqXqXqXqXqXqXqXqXqXqXqXqX",
"qXqXqXqXqXqXqXqXqXqXqXqXqXqXqXqXqXqXqXC I v %X8X8X8X8X8X8X8X8X8XG.$X8X8X8X8X8X8X8X6X$.qXqXqXqXqXqXqXqXqXqXqX0 *X8X8X8X8X8X8X8X8X%XqXqXqXqXqXqXqXqXqXqXqXqXqXqXqX",
"qXqXqXqXqXqXqXqXqXqXqXqXqXqXqXqXqXqXqXd T L v R.9X8X8X8X8X8X8XR.; P.8X8X8X8X8X8X8X8XR.qXqXqXqXqXqXqXqXqXqXqXqXR.8X8X8X8X8X8X8X8X2Xr qXqXqXqXqXqXqXqXqXqXqXqXqXqX",
"qXqXqXqXqXqXqXqXqXqXqXqXqXqXqXqXqXqXqX@ D W R N =.[.1X8X8X2XG.qXqX%.7X8X8X8X8X8X8X8X1Xt qXqXqXqXqXqXqXqXqXqXqX;.7X8X8X8X8X8X8X8X8X>.qXqXqXqXqXqXqXqXqXqXqXqXqXqX",
"qXqXqXqXqXqXqXqXqXqXqXqXqXqXqXqXqXqXqXqXi P W W L V v =.F.{ qXqXqXq >X8X8X8X8X8X8X8X8XP.qXqXqXqXqXqXqXqXqXqXqXw 3X8X8X8X8X8X8X8X8XE.qXqXqXqXqXqXqXqXqXqXqXqXqXqX",
"qXqXqXqXqXqXqXqXqXqXqXqXqXqXqXqXqXqXqXqXqXd P Q Q E G p X qXqXqXqXqX[.8X8X8X8X8X8X8X8X-Xw qXqXqXqXqXqXqXqXqXqXqX{.8X8X8X7X3X$X[.(.H.o qXqXqXqXqXqXqXqXqXqXqXqXqX",
"qXqXqXqXqXqXqXqXqXqXqXqXqXqXqXqXqXqXqXqXqXqXi K D d @ qXqXqXqXqXqXqXD.8X8X8X8X4X$XP.F.=.8 qXqXqXqXqXqXqXqXqXqXqXP.8X6X[.F.v N Z C V 6 qXqXqXqXqXqXqXqXqXqXqXqXqX",
"qXqXqXqXqXqXqXqXqXqXqXqXqXqXqXqXqXqXqXqXqXqXqXqXqXqXqXqXqXqXqXqXqXqXt 1X8X1XP.v B D J I H 6 qXqXqXqXqXqXqXqXqXqX:.$X=.N L U Q Q W W f qXqXqXqXqXqXqXqXqXqXqXqXqX",
"qXqXqXqXqXqXqXqXqXqXqXqXqXqXqXqXqXqXqXqXqXqXqXqXqXqXqXqXqXqXqXqXqXqXqXK.[.v C R W W W W W B qXqXqXqXqXqXqXqXqXqX# f L Q T T T W W W V qXqXqXqXqXqXqXqXqXqXqXqXqX",
"qXqXqXqXqXqXqXqXqXqXqXqXqXqXqXqXqXqXqXqXqXqXqXqXqXqXqXqXqXqXqXqXqXqXqXo i I Q W W W W W W L 6 qXqXqXqXqXqXqXqXqXqXA Q T Q T T T T Q D qXqXqXqXqXqXqXqXqXqXqXqXqX",
"qXqXqXqXqXqXqXqXqXqXqXqXqXqXqXqXqXqXqXqXqXqXqXqXqXqXqXqXqXqXqXqXqXqXqXqX@ j H R Y U U R I H i qXqXqXqXqXqXqXqXqXqX5 S R T T T T T W L @ qXqXqXqXqXqXqXqXqXqXqXqX",
"qXqXqXqXqXqXqXqXqXqXqXqXqXqXqXqXqXqXqXqXqXqXqXqXqXqXqXqXqXqXqXqXqXqXqXqXqXqX@ i s s p p 7 @ qXqXqXqXqXqXqXqXqXqXqXqX@ i d d f d d d s @ qXqXqXqXqXqXqXqXqXqXqXqX"
};
